<svg xmlns="http://www.w3.org/2000/svg" xmlns:xlink="http://www.w3.org/1999/xlink" version="1.0" viewBox="11.42 163.52 326.43 80.5"><defs><clipPath id="a"><path d="M 268.84375 163.523438 L 337.84375 163.523438 L 337.84375 243 L 268.84375 243 Z M 268.84375 163.523438"/></clipPath><clipPath id="b"><path d="M 316.941406 176.722656 L 306.28125 182.871094 C 306.007812 183.027344 305.789062 183.238281 305.632812 183.511719 C 305.476562 183.785156 305.398438 184.078125 305.402344 184.394531 L 305.402344 196.710938 C 305.402344 196.863281 305.421875 197.015625 305.464844 197.164062 C 305.503906 197.3125 305.5625 197.457031 305.640625 197.589844 C 305.714844 197.722656 305.808594 197.84375 305.917969 197.953125 C 306.027344 198.0625 306.148438 198.15625 306.285156 198.230469 C 306.417969 198.308594 306.558594 198.367188 306.707031 198.40625 C 306.855469 198.449219 307.007812 198.46875 307.164062 198.46875 C 307.316406 198.46875 307.46875 198.449219 307.617188 198.410156 C 307.769531 198.367188 307.910156 198.308594 308.042969 198.234375 L 318.699219 192.085938 C 318.976562 191.933594 319.191406 191.71875 319.351562 191.445312 C 319.507812 191.171875 319.585938 190.878906 319.582031 190.5625 L 319.582031 178.246094 C 319.582031 178.089844 319.558594 177.941406 319.519531 177.789062 C 319.480469 177.640625 319.421875 177.5 319.34375 177.367188 C 319.265625 177.234375 319.175781 177.113281 319.066406 177.003906 C 318.957031 176.894531 318.835938 176.800781 318.699219 176.722656 C 318.566406 176.644531 318.425781 176.585938 318.277344 176.546875 C 318.128906 176.507812 317.976562 176.488281 317.820312 176.488281 C 317.667969 176.488281 317.515625 176.507812 317.367188 176.546875 C 317.214844 176.585938 317.074219 176.644531 316.941406 176.722656 Z M 335.203125 198.234375 L 324.527344 192.078125 C 324.25 191.921875 324.035156 191.707031 323.878906 191.433594 C 323.71875 191.164062 323.644531 190.867188 323.648438 190.554688 L 323.648438 178.238281 C 323.648438 178.085938 323.667969 177.933594 323.707031 177.785156 C 323.746094 177.636719 323.804688 177.492188 323.882812 177.359375 C 323.960938 177.226562 324.054688 177.105469 324.164062 176.996094 C 324.273438 176.886719 324.394531 176.792969 324.527344 176.71875 C 324.660156 176.640625 324.800781 176.582031 324.953125 176.542969 C 325.101562 176.5 325.253906 176.480469 325.40625 176.480469 C 325.5625 176.480469 325.714844 176.5 325.863281 176.542969 C 326.011719 176.582031 326.152344 176.640625 326.285156 176.714844 L 336.960938 182.875 C 337.238281 183.027344 337.453125 183.242188 337.613281 183.515625 C 337.769531 183.789062 337.847656 184.082031 337.84375 184.398438 L 337.84375 196.710938 C 337.84375 196.863281 337.824219 197.015625 337.78125 197.164062 C 337.742188 197.3125 337.683594 197.457031 337.605469 197.589844 C 337.527344 197.722656 337.4375 197.84375 337.328125 197.953125 C 337.21875 198.0625 337.097656 198.15625 336.960938 198.230469 C 336.828125 198.308594 336.6875 198.367188 336.539062 198.40625 C 336.386719 198.449219 336.238281 198.46875 336.082031 198.46875 C 335.925781 198.46875 335.777344 198.449219 335.625 198.410156 C 335.476562 198.367188 335.335938 198.308594 335.203125 198.234375 Z M 323.644531 216.007812 L 323.644531 228.304688 C 323.644531 228.460938 323.667969 228.609375 323.707031 228.761719 C 323.746094 228.910156 323.804688 229.050781 323.882812 229.183594 C 323.960938 229.316406 324.054688 229.4375 324.164062 229.546875 C 324.273438 229.65625 324.394531 229.75 324.527344 229.828125 C 324.660156 229.90625 324.800781 229.964844 324.953125 230.003906 C 325.101562 230.042969 325.253906 230.0625 325.40625 230.0625 C 325.5625 230.0625 325.714844 230.042969 325.863281 230.003906 C 326.011719 229.964844 326.152344 229.90625 326.285156 229.828125 L 336.960938 223.671875 C 337.238281 223.515625 337.453125 223.304688 337.609375 223.03125 C 337.769531 222.757812 337.847656 222.460938 337.839844 222.148438 L 337.839844 209.851562 C 337.839844 209.695312 337.820312 209.542969 337.78125 209.394531 C 337.742188 209.246094 337.683594 209.105469 337.605469 208.972656 C 337.527344 208.835938 337.433594 208.714844 337.324219 208.605469 C 337.214844 208.5 337.09375 208.40625 336.960938 208.328125 C 336.828125 208.25 336.6875 208.191406 336.535156 208.152344 C 336.386719 208.113281 336.234375 208.09375 336.082031 208.09375 C 335.925781 208.09375 335.773438 208.113281 335.625 208.152344 C 335.476562 208.191406 335.335938 208.25 335.199219 208.328125 L 324.527344 214.484375 C 324.25 214.640625 324.035156 214.851562 323.878906 215.125 C 323.71875 215.398438 323.640625 215.691406 323.644531 216.007812 Z M 310.066406 204.808594 C 309.933594 204.730469 309.8125 204.636719 309.703125 204.53125 C 309.59375 204.421875 309.5 204.296875 309.421875 204.164062 C 309.34375 204.03125 309.289062 203.890625 309.246094 203.742188 C 309.207031 203.59375 309.1875 203.441406 309.1875 203.285156 C 309.1875 203.132812 309.207031 202.980469 309.246094 202.832031 C 309.289062 202.683594 309.34375 202.539062 309.421875 202.40625 C 309.5 202.273438 309.59375 202.152344 309.703125 202.042969 C 309.8125 201.933594 309.933594 201.839844 310.066406 201.761719 L 320.742188 195.605469 C 321.011719 195.445312 321.304688 195.363281 321.621094 195.363281 C 321.9375 195.363281 322.230469 195.445312 322.5 195.605469 L 333.160156 201.753906 C 333.292969 201.832031 333.414062 201.921875 333.523438 202.03125 C 333.632812 202.140625 333.726562 202.261719 333.804688 202.398438 C 333.878906 202.53125 333.9375 202.671875 333.980469 202.820312 C 334.019531 202.96875 334.039062 203.121094 334.039062 203.277344 C 334.039062 203.429688 334.019531 203.582031 333.980469 203.730469 C 333.9375 203.878906 333.878906 204.019531 333.804688 204.15625 C 333.726562 204.289062 333.632812 204.410156 333.523438 204.519531 C 333.414062 204.628906 333.292969 204.722656 333.160156 204.796875 L 322.484375 210.957031 C 322.214844 211.117188 321.921875 211.199219 321.605469 211.199219 C 321.289062 211.199219 320.996094 211.117188 320.722656 210.957031 Z M 291.785156 233.359375 L 302.460938 227.203125 C 302.734375 227.039062 303.027344 226.960938 303.34375 226.960938 C 303.65625 226.960938 303.949219 227.039062 304.222656 227.203125 L 314.898438 233.359375 C 315.03125 233.4375 315.152344 233.53125 315.261719 233.640625 C 315.371094 233.75 315.464844 233.871094 315.542969 234.003906 C 315.617188 234.136719 315.675781 234.277344 315.71875 234.429688 C 315.757812 234.578125 315.777344 234.730469 315.777344 234.882812 C 315.777344 235.039062 315.757812 235.1875 315.71875 235.339844 C 315.675781 235.488281 315.617188 235.628906 315.542969 235.761719 C 315.464844 235.894531 315.371094 236.015625 315.261719 236.125 C 315.152344 236.234375 315.03125 236.328125 314.898438 236.40625 L 304.222656 242.5625 C 303.949219 242.726562 303.65625 242.804688 303.34375 242.804688 C 303.027344 242.804688 302.734375 242.726562 302.460938 242.5625 L 291.785156 236.40625 C 291.652344 236.328125 291.53125 236.234375 291.421875 236.125 C 291.3125 236.015625 291.21875 235.894531 291.144531 235.761719 C 291.066406 235.628906 291.007812 235.488281 290.96875 235.339844 C 290.925781 235.1875 290.90625 235.039062 290.90625 234.882812 C 290.90625 234.730469 290.925781 234.578125 290.96875 234.429688 C 291.007812 234.277344 291.066406 234.136719 291.144531 234.003906 C 291.21875 233.871094 291.3125 233.75 291.421875 233.640625 C 291.53125 233.53125 291.652344 233.4375 291.785156 233.359375 Z M 316.921875 229.835938 C 317.054688 229.914062 317.199219 229.972656 317.347656 230.011719 C 317.496094 230.050781 317.648438 230.070312 317.800781 230.070312 C 317.957031 230.070312 318.109375 230.050781 318.257812 230.011719 C 318.40625 229.96875 318.546875 229.910156 318.683594 229.835938 C 318.816406 229.757812 318.9375 229.664062 319.046875 229.554688 C 319.15625 229.445312 319.25 229.324219 319.324219 229.191406 C 319.402344 229.058594 319.460938 228.917969 319.5 228.765625 C 319.542969 228.617188 319.5625 228.464844 319.5625 228.3125 L 319.5625 215.988281 C 319.566406 215.671875 319.488281 215.378906 319.332031 215.105469 C 319.175781 214.832031 318.957031 214.621094 318.683594 214.464844 L 308.023438 208.316406 C 307.890625 208.238281 307.75 208.179688 307.601562 208.140625 C 307.449219 208.101562 307.296875 208.082031 307.144531 208.082031 C 306.988281 208.082031 306.839844 208.101562 306.6875 208.140625 C 306.539062 208.179688 306.398438 208.238281 306.265625 208.316406 C 306.128906 208.394531 306.007812 208.488281 305.898438 208.597656 C 305.789062 208.707031 305.699219 208.828125 305.621094 208.960938 C 305.542969 209.09375 305.484375 209.234375 305.445312 209.386719 C 305.40625 209.535156 305.386719 209.6875 305.386719 209.839844 L 305.386719 222.15625 C 305.378906 222.472656 305.457031 222.765625 305.613281 223.039062 C 305.773438 223.3125 305.988281 223.523438 306.265625 223.679688 L 316.921875 229.828125 Z M 283.039062 228.3125 L 283.039062 215.988281 C 283.042969 215.671875 282.964844 215.378906 282.808594 215.105469 C 282.648438 214.832031 282.433594 214.621094 282.160156 214.464844 L 271.484375 208.308594 C 271.347656 208.230469 271.207031 208.171875 271.058594 208.132812 C 270.910156 208.09375 270.757812 208.074219 270.601562 208.074219 C 270.449219 208.074219 270.296875 208.09375 270.148438 208.132812 C 270 208.171875 269.859375 208.230469 269.722656 208.308594 C 269.589844 208.386719 269.46875 208.476562 269.359375 208.585938 C 269.25 208.695312 269.15625 208.816406 269.078125 208.949219 C 269.003906 209.085938 268.941406 209.226562 268.902344 209.375 C 268.863281 209.523438 268.84375 209.675781 268.84375 209.828125 L 268.84375 222.144531 C 268.839844 222.460938 268.914062 222.753906 269.074219 223.027344 C 269.230469 223.300781 269.449219 223.515625 269.722656 223.667969 L 280.398438 229.828125 C 280.53125 229.902344 280.671875 229.960938 280.820312 230.003906 C 280.972656 230.042969 281.125 230.0625 281.277344 230.0625 C 281.433594 230.0625 281.582031 230.042969 281.734375 230.003906 C 281.882812 229.960938 282.023438 229.902344 282.15625 229.828125 C 282.292969 229.75 282.414062 229.65625 282.523438 229.546875 C 282.632812 229.4375 282.722656 229.316406 282.800781 229.183594 C 282.878906 229.050781 282.9375 228.90625 282.976562 228.757812 C 283.019531 228.609375 283.039062 228.457031 283.039062 228.304688 Z M 287.105469 215.996094 L 287.105469 228.292969 C 287.105469 228.445312 287.125 228.597656 287.164062 228.746094 C 287.207031 228.894531 287.265625 229.039062 287.339844 229.171875 C 287.417969 229.304688 287.511719 229.425781 287.621094 229.535156 C 287.730469 229.644531 287.851562 229.738281 287.984375 229.8125 C 288.117188 229.890625 288.261719 229.949219 288.410156 229.988281 C 288.558594 230.03125 288.710938 230.050781 288.863281 230.050781 C 289.019531 230.050781 289.171875 230.03125 289.320312 229.988281 C 289.46875 229.949219 289.609375 229.890625 289.746094 229.8125 L 300.417969 223.65625 C 300.695312 223.503906 300.910156 223.289062 301.070312 223.015625 C 301.226562 222.742188 301.304688 222.449219 301.300781 222.132812 L 301.300781 209.839844 C 301.300781 209.6875 301.277344 209.535156 301.238281 209.386719 C 301.199219 209.234375 301.140625 209.09375 301.0625 208.960938 C 300.988281 208.828125 300.894531 208.707031 300.785156 208.597656 C 300.675781 208.488281 300.554688 208.394531 300.417969 208.316406 C 300.285156 208.238281 300.144531 208.179688 299.996094 208.140625 C 299.847656 208.101562 299.695312 208.082031 299.539062 208.082031 C 299.386719 208.082031 299.234375 208.101562 299.085938 208.140625 C 298.933594 208.179688 298.792969 208.238281 298.660156 208.316406 L 287.984375 214.476562 C 287.710938 214.628906 287.492188 214.84375 287.335938 215.117188 C 287.175781 215.390625 287.101562 215.683594 287.105469 216 Z M 271.5 198.222656 L 282.175781 192.066406 C 282.449219 191.910156 282.667969 191.699219 282.824219 191.425781 C 282.984375 191.152344 283.058594 190.855469 283.054688 190.542969 L 283.054688 178.226562 C 283.054688 178.070312 283.035156 177.917969 282.996094 177.769531 C 282.957031 177.621094 282.898438 177.480469 282.820312 177.347656 C 282.742188 177.214844 282.648438 177.089844 282.539062 176.984375 C 282.429688 176.875 282.308594 176.78125 282.175781 176.703125 C 282.042969 176.625 281.898438 176.566406 281.75 176.527344 C 281.601562 176.488281 281.449219 176.46875 281.296875 176.46875 C 281.140625 176.46875 280.988281 176.488281 280.839844 176.527344 C 280.691406 176.566406 280.546875 176.625 280.414062 176.703125 L 269.738281 182.859375 C 269.464844 183.015625 269.246094 183.226562 269.089844 183.5 C 268.933594 183.773438 268.855469 184.066406 268.859375 184.382812 L 268.859375 196.699219 C 268.859375 196.855469 268.878906 197.007812 268.921875 197.15625 C 268.960938 197.304688 269.019531 197.445312 269.097656 197.578125 C 269.175781 197.710938 269.265625 197.832031 269.375 197.941406 C 269.484375 198.050781 269.609375 198.144531 269.742188 198.222656 C 269.875 198.300781 270.015625 198.359375 270.164062 198.398438 C 270.316406 198.4375 270.464844 198.457031 270.621094 198.457031 C 270.773438 198.457031 270.925781 198.4375 271.078125 198.398438 C 271.226562 198.359375 271.367188 198.300781 271.5 198.222656 Z M 284.199219 195.589844 C 284.472656 195.429688 284.765625 195.347656 285.078125 195.347656 C 285.394531 195.347656 285.6875 195.429688 285.960938 195.589844 L 296.636719 201.746094 C 296.769531 201.824219 296.890625 201.917969 297 202.027344 C 297.109375 202.136719 297.203125 202.257812 297.277344 202.390625 C 297.355469 202.523438 297.414062 202.667969 297.453125 202.816406 C 297.496094 202.964844 297.515625 203.117188 297.515625 203.269531 C 297.515625 203.425781 297.496094 203.574219 297.453125 203.726562 C 297.414062 203.875 297.355469 204.015625 297.277344 204.148438 C 297.203125 204.28125 297.109375 204.402344 297 204.511719 C 296.890625 204.621094 296.769531 204.714844 296.636719 204.792969 L 285.976562 210.941406 C 285.707031 211.101562 285.414062 211.183594 285.097656 211.183594 C 284.78125 211.183594 284.488281 211.101562 284.21875 210.941406 L 273.542969 204.78125 C 273.40625 204.703125 273.285156 204.613281 273.175781 204.503906 C 273.070312 204.394531 272.976562 204.273438 272.898438 204.136719 C 272.820312 204.003906 272.761719 203.863281 272.722656 203.714844 C 272.683594 203.566406 272.664062 203.414062 272.664062 203.257812 C 272.664062 203.105469 272.683594 202.953125 272.722656 202.804688 C 272.761719 202.65625 272.820312 202.515625 272.898438 202.378906 C 272.976562 202.246094 273.070312 202.125 273.175781 202.015625 C 273.285156 201.90625 273.40625 201.8125 273.542969 201.738281 Z M 291.804688 173.199219 C 291.671875 173.121094 291.550781 173.027344 291.441406 172.917969 C 291.332031 172.808594 291.238281 172.6875 291.160156 172.554688 C 291.082031 172.421875 291.023438 172.28125 290.984375 172.128906 C 290.945312 171.980469 290.925781 171.828125 290.925781 171.675781 C 290.925781 171.519531 290.945312 171.371094 290.984375 171.21875 C 291.023438 171.070312 291.082031 170.929688 291.160156 170.796875 C 291.238281 170.664062 291.332031 170.539062 291.441406 170.433594 C 291.550781 170.324219 291.671875 170.230469 291.804688 170.152344 L 302.480469 163.996094 C 302.75 163.832031 303.042969 163.75 303.359375 163.75 C 303.675781 163.75 303.96875 163.832031 304.238281 163.996094 L 309.578125 167.074219 L 314.914062 170.152344 C 315.046875 170.230469 315.171875 170.324219 315.277344 170.433594 C 315.386719 170.539062 315.480469 170.664062 315.558594 170.796875 C 315.636719 170.929688 315.695312 171.070312 315.734375 171.21875 C 315.773438 171.371094 315.792969 171.519531 315.792969 171.675781 C 315.792969 171.828125 315.773438 171.980469 315.734375 172.128906 C 315.695312 172.28125 315.636719 172.421875 315.558594 172.554688 C 315.480469 172.6875 315.386719 172.808594 315.277344 172.917969 C 315.171875 173.027344 315.046875 173.121094 314.914062 173.199219 L 304.238281 179.355469 C 303.96875 179.519531 303.675781 179.597656 303.359375 179.597656 C 303.042969 179.597656 302.75 179.519531 302.480469 179.355469 Z M 300.433594 182.871094 L 289.777344 176.722656 C 289.644531 176.644531 289.5 176.585938 289.351562 176.546875 C 289.203125 176.507812 289.050781 176.488281 288.898438 176.488281 C 288.742188 176.488281 288.589844 176.507812 288.441406 176.546875 C 288.292969 176.585938 288.152344 176.644531 288.015625 176.722656 C 287.882812 176.800781 287.761719 176.894531 287.652344 177.003906 C 287.542969 177.113281 287.449219 177.234375 287.375 177.367188 C 287.296875 177.5 287.238281 177.640625 287.199219 177.789062 C 287.15625 177.941406 287.136719 178.089844 287.136719 178.246094 L 287.136719 190.5625 C 287.132812 190.878906 287.210938 191.171875 287.367188 191.445312 C 287.527344 191.71875 287.742188 191.929688 288.015625 192.085938 L 298.675781 198.234375 C 298.808594 198.308594 298.949219 198.367188 299.097656 198.410156 C 299.25 198.449219 299.402344 198.46875 299.554688 198.46875 C 299.710938 198.46875 299.859375 198.449219 300.011719 198.40625 C 300.160156 198.367188 300.300781 198.308594 300.433594 198.230469 C 300.570312 198.15625 300.691406 198.0625 300.800781 197.953125 C 300.910156 197.84375 301 197.722656 301.078125 197.589844 C 301.15625 197.453125 301.214844 197.3125 301.253906 197.164062 C 301.292969 197.015625 301.3125 196.863281 301.3125 196.710938 L 301.3125 184.394531 C 301.320312 184.078125 301.242188 183.785156 301.085938 183.511719 C 300.929688 183.238281 300.714844 183.027344 300.4375 182.871094 Z M 300.433594 182.871094" clip-rule="evenodd"/></clipPath><radialGradient xmlns:xlink="http://www.w3.org/1999/xlink" gradientTransform="matrix(1.00041 0 0 .99959 -20.198 -175.567)" gradientUnits="userSpaceOnUse" xlink:type="simple" r="79.078" xlink:actuate="onLoad" cx="323.407" id="c" cy="418.537" xlink:show="other" fx="323.407" fy="418.537"><stop stop-color="#FFCA11" offset="0"/><stop stop-color="#FFC812" offset=".004"/><stop stop-color="#FFC713" offset=".008"/><stop stop-color="#FEC514" offset=".012"/><stop stop-color="#FEC314" offset=".016"/><stop stop-color="#FEC215" offset=".02"/><stop stop-color="#FEC016" offset=".023"/><stop stop-color="#FEBE17" offset=".027"/><stop stop-color="#FEBD17" offset=".031"/><stop stop-color="#FDBB18" offset=".035"/><stop stop-color="#FDB919" offset=".039"/><stop stop-color="#FDB81A" offset=".043"/><stop stop-color="#FDB61A" offset=".047"/><stop stop-color="#FDB41B" offset=".051"/><stop stop-color="#FDB21C" offset=".055"/><stop stop-color="#FCB11C" offset=".059"/><stop stop-color="#FCAF1D" offset=".063"/><stop stop-color="#FCAD1E" offset=".066"/><stop stop-color="#FCAC1F" offset=".07"/><stop stop-color="#FCAA1F" offset=".074"/><stop stop-color="#FCA820" offset=".078"/><stop stop-color="#FBA721" offset=".082"/><stop stop-color="#FBA522" offset=".086"/><stop stop-color="#FBA322" offset=".09"/><stop stop-color="#FBA223" offset=".094"/><stop stop-color="#FBA024" offset=".098"/><stop stop-color="#FB9E25" offset=".102"/><stop stop-color="#FA9D25" offset=".105"/><stop stop-color="#FA9B26" offset=".109"/><stop stop-color="#FA9927" offset=".113"/><stop stop-color="#FA9727" offset=".117"/><stop stop-color="#FA9628" offset=".121"/><stop stop-color="#FA9429" offset=".125"/><stop stop-color="#F9922A" offset=".129"/><stop stop-color="#F9912A" offset=".133"/><stop stop-color="#F98F2B" offset=".137"/><stop stop-color="#F98D2C" offset=".141"/><stop stop-color="#F98C2D" offset=".145"/><stop stop-color="#F98A2D" offset=".148"/><stop stop-color="#F9882E" offset=".152"/><stop stop-color="#F8872F" offset=".156"/><stop stop-color="#F88530" offset=".16"/><stop stop-color="#F88330" offset=".164"/><stop stop-color="#F88231" offset=".168"/><stop stop-color="#F88032" offset=".172"/><stop stop-color="#F87E32" offset=".176"/><stop stop-color="#F77C33" offset=".18"/><stop stop-color="#F77B34" offset=".184"/><stop stop-color="#F77935" offset=".188"/><stop stop-color="#F77735" offset=".191"/><stop stop-color="#F77636" offset=".195"/><stop stop-color="#F77437" offset=".199"/><stop stop-color="#F67238" offset=".203"/><stop stop-color="#F67138" offset=".207"/><stop stop-color="#F66F39" offset=".211"/><stop stop-color="#F66D3A" offset=".215"/><stop stop-color="#F66C3B" offset=".219"/><stop stop-color="#F66A3B" offset=".223"/><stop stop-color="#F5683C" offset=".227"/><stop stop-color="#F5673D" offset=".23"/><stop stop-color="#F5653E" offset=".234"/><stop stop-color="#F5633E" offset=".238"/><stop stop-color="#F5613F" offset=".242"/><stop stop-color="#F56040" offset=".246"/><stop stop-color="#F45E40" offset=".25"/><stop stop-color="#F45C41" offset=".254"/><stop stop-color="#F45B42" offset=".258"/><stop stop-color="#F45943" offset=".262"/><stop stop-color="#F45743" offset=".266"/><stop stop-color="#F45644" offset=".27"/><stop stop-color="#F35445" offset=".273"/><stop stop-color="#F35246" offset=".277"/><stop stop-color="#F35146" offset=".281"/><stop stop-color="#F34F47" offset=".285"/><stop stop-color="#F34D48" offset=".289"/><stop stop-color="#F34B49" offset=".293"/><stop stop-color="#F24A49" offset=".297"/><stop stop-color="#F2484A" offset=".301"/><stop stop-color="#F2464B" offset=".305"/><stop stop-color="#F2454B" offset=".309"/><stop stop-color="#F2434C" offset=".313"/><stop stop-color="#F2414D" offset=".316"/><stop stop-color="#F1404E" offset=".32"/><stop stop-color="#F13E4E" offset=".324"/><stop stop-color="#F13C4F" offset=".328"/><stop stop-color="#F13B50" offset=".332"/><stop stop-color="#F13951" offset=".336"/><stop stop-color="#F13751" offset=".34"/><stop stop-color="#F03652" offset=".344"/><stop stop-color="#F03453" offset=".348"/><stop stop-color="#F03254" offset=".352"/><stop stop-color="#F03054" offset=".355"/><stop stop-color="#F02F55" offset=".359"/><stop stop-color="#F02D56" offset=".363"/><stop stop-color="#EF2B56" offset=".367"/><stop stop-color="#EF2A57" offset=".371"/><stop stop-color="#EF2858" offset=".375"/><stop stop-color="#EF2659" offset=".379"/><stop stop-color="#EF2559" offset=".383"/><stop stop-color="#EF235A" offset=".387"/><stop stop-color="#EE215B" offset=".391"/><stop stop-color="#EE205C" offset=".395"/><stop stop-color="#EE1E5C" offset=".398"/><stop stop-color="#EE1C5D" offset=".402"/><stop stop-color="#EE1B5E" offset=".406"/><stop stop-color="#EE195F" offset=".41"/><stop stop-color="#ED175F" offset=".414"/><stop stop-color="#ED1560" offset=".418"/><stop stop-color="#ED1461" offset=".422"/><stop stop-color="#ED1261" offset=".426"/><stop stop-color="#EC1162" offset=".43"/><stop stop-color="#EB1162" offset=".434"/><stop stop-color="#EA1263" offset=".438"/><stop stop-color="#E91263" offset=".441"/><stop stop-color="#E81263" offset=".445"/><stop stop-color="#E71264" offset=".449"/><stop stop-color="#E51264" offset=".453"/><stop stop-color="#E41364" offset=".457"/><stop stop-color="#E31365" offset=".461"/><stop stop-color="#E21365" offset=".465"/><stop stop-color="#E11365" offset=".469"/><stop stop-color="#E01366" offset=".473"/><stop stop-color="#DE1466" offset=".477"/><stop stop-color="#DD1466" offset=".48"/><stop stop-color="#DC1467" offset=".484"/><stop stop-color="#DB1467" offset=".488"/><stop stop-color="#DA1567" offset=".492"/><stop stop-color="#D91568" offset=".496"/><stop stop-color="#D71568" offset=".5"/><stop stop-color="#D61568" offset=".504"/><stop stop-color="#D51569" offset=".508"/><stop stop-color="#D41669" offset=".512"/><stop stop-color="#D31669" offset=".516"/><stop stop-color="#D2166A" offset=".52"/><stop stop-color="#D0166A" offset=".523"/><stop stop-color="#CF166A" offset=".527"/><stop stop-color="#CE176B" offset=".531"/><stop stop-color="#CD176B" offset=".535"/><stop stop-color="#CC176B" offset=".539"/><stop stop-color="#CB176C" offset=".543"/><stop stop-color="#C9186C" offset=".547"/><stop stop-color="#C8186C" offset=".551"/><stop stop-color="#C7186D" offset=".555"/><stop stop-color="#C6186D" offset=".559"/><stop stop-color="#C5186D" offset=".563"/><stop stop-color="#C4196E" offset=".566"/><stop stop-color="#C3196E" offset=".57"/><stop stop-color="#C1196E" offset=".574"/><stop stop-color="#C0196F" offset=".578"/><stop stop-color="#BF196F" offset=".582"/><stop stop-color="#BE1A6F" offset=".586"/><stop stop-color="#BD1A70" offset=".59"/><stop stop-color="#BC1A70" offset=".594"/><stop stop-color="#BA1A70" offset=".598"/><stop stop-color="#B91A71" offset=".602"/><stop stop-color="#B81B71" offset=".605"/><stop stop-color="#B71B71" offset=".609"/><stop stop-color="#B61B72" offset=".613"/><stop stop-color="#B51B72" offset=".617"/><stop stop-color="#B31C72" offset=".621"/><stop stop-color="#B21C73" offset=".625"/><stop stop-color="#B11C73" offset=".629"/><stop stop-color="#B01C73" offset=".633"/><stop stop-color="#AF1C74" offset=".637"/><stop stop-color="#AE1D74" offset=".641"/><stop stop-color="#AC1D74" offset=".645"/><stop stop-color="#AB1D75" offset=".648"/><stop stop-color="#AA1D75" offset=".652"/><stop stop-color="#A91D75" offset=".656"/><stop stop-color="#A81E76" offset=".66"/><stop stop-color="#A71E76" offset=".664"/><stop stop-color="#A51E76" offset=".668"/><stop stop-color="#A41E77" offset=".672"/><stop stop-color="#A31E77" offset=".676"/><stop stop-color="#A21F77" offset=".68"/><stop stop-color="#A11F78" offset=".684"/><stop stop-color="#A01F78" offset=".688"/><stop stop-color="#9E1F78" offset=".691"/><stop stop-color="#9D2079" offset=".695"/><stop stop-color="#9C2079" offset=".699"/><stop stop-color="#9B2079" offset=".703"/><stop stop-color="#9A207A" offset=".707"/><stop stop-color="#99207A" offset=".711"/><stop stop-color="#97217A" offset=".715"/><stop stop-color="#96217A" offset=".719"/><stop stop-color="#95217B" offset=".723"/><stop stop-color="#94217B" offset=".727"/><stop stop-color="#93217B" offset=".73"/><stop stop-color="#92227C" offset=".734"/><stop stop-color="#90227C" offset=".738"/><stop stop-color="#8F227C" offset=".742"/><stop stop-color="#8E227D" offset=".746"/><stop stop-color="#8D237D" offset=".75"/><stop stop-color="#8C237D" offset=".754"/><stop stop-color="#8B237E" offset=".758"/><stop stop-color="#89237E" offset=".762"/><stop stop-color="#88237E" offset=".766"/><stop stop-color="#87247F" offset=".77"/><stop stop-color="#86247F" offset=".773"/><stop stop-color="#85247F" offset=".777"/><stop stop-color="#842480" offset=".781"/><stop stop-color="#822480" offset=".785"/><stop stop-color="#812580" offset=".789"/><stop stop-color="#802581" offset=".793"/><stop stop-color="#7F2581" offset=".797"/><stop stop-color="#7E2581" offset=".801"/><stop stop-color="#7D2582" offset=".805"/><stop stop-color="#7C2682" offset=".809"/><stop stop-color="#7A2682" offset=".813"/><stop stop-color="#792683" offset=".816"/><stop stop-color="#782683" offset=".82"/><stop stop-color="#772783" offset=".824"/><stop stop-color="#762784" offset=".828"/><stop stop-color="#752784" offset=".832"/><stop stop-color="#732784" offset=".836"/><stop stop-color="#722785" offset=".84"/><stop stop-color="#712885" offset=".844"/><stop stop-color="#702885" offset=".848"/><stop stop-color="#6F2886" offset=".852"/><stop stop-color="#6E2886" offset=".855"/><stop stop-color="#6C2886" offset=".859"/><stop stop-color="#6B2987" offset=".863"/><stop stop-color="#6A2987" offset=".867"/><stop stop-color="#692987" offset=".871"/><stop stop-color="#682988" offset=".875"/><stop stop-color="#672988" offset=".879"/><stop stop-color="#652A88" offset=".883"/><stop stop-color="#642A89" offset=".887"/><stop stop-color="#632A89" offset=".891"/><stop stop-color="#622A89" offset=".895"/><stop stop-color="#612B8A" offset=".898"/><stop stop-color="#602B8A" offset=".902"/><stop stop-color="#5E2B8A" offset=".906"/><stop stop-color="#5D2B8B" offset=".91"/><stop stop-color="#5C2B8B" offset=".914"/><stop stop-color="#5B2C8B" offset=".918"/><stop stop-color="#5A2C8C" offset=".922"/><stop stop-color="#592C8C" offset=".926"/><stop stop-color="#572C8C" offset=".93"/><stop stop-color="#562C8D" offset=".934"/><stop stop-color="#552D8D" offset=".938"/><stop stop-color="#542D8D" offset=".941"/><stop stop-color="#532D8E" offset=".945"/><stop stop-color="#522D8E" offset=".949"/><stop stop-color="#502E8E" offset=".953"/><stop stop-color="#4F2E8F" offset=".957"/><stop stop-color="#4E2E8F" offset=".961"/><stop stop-color="#4D2E8F" offset=".965"/><stop stop-color="#4C2E90" offset=".969"/><stop stop-color="#4B2F90" offset=".973"/><stop stop-color="#492F90" offset=".977"/><stop stop-color="#482F91" offset=".98"/><stop stop-color="#472F91" offset=".984"/><stop stop-color="#462F91" offset=".988"/><stop stop-color="#453092" offset=".992"/><stop stop-color="#443092" offset=".996"/><stop stop-color="#433092" offset="1"/></radialGradient></defs><g clip-path="url(#a)"><g clip-path="url(#b)"><path fill="url(#c)" d="M 268.84375 163.75 L 268.84375 242.804688 L 337.84375 242.804688 L 337.84375 163.75 Z M 268.84375 163.75"/></g></g><g fill="#FFF"><g><g><path d="M 5.8125 0.203125 C 5.289062 0.203125 4.851562 0.0234375 4.5 -0.328125 C 4.144531 -0.679688 3.96875 -1.117188 3.96875 -1.640625 L 3.96875 -26.90625 C 3.96875 -27.425781 4.144531 -27.867188 4.5 -28.234375 C 4.851562 -28.609375 5.289062 -28.796875 5.8125 -28.796875 C 6.332031 -28.796875 6.773438 -28.609375 7.140625 -28.234375 C 7.515625 -27.867188 7.703125 -27.425781 7.703125 -26.90625 L 7.703125 -16.015625 L 23.21875 -16.015625 L 23.21875 -26.90625 C 23.21875 -27.425781 23.394531 -27.867188 23.75 -28.234375 C 24.101562 -28.609375 24.539062 -28.796875 25.0625 -28.796875 C 25.582031 -28.796875 26.023438 -28.609375 26.390625 -28.234375 C 26.765625 -27.867188 26.953125 -27.425781 26.953125 -26.90625 L 26.953125 -1.640625 C 26.953125 -1.117188 26.765625 -0.679688 26.390625 -0.328125 C 26.023438 0.0234375 25.582031 0.203125 25.0625 0.203125 C 24.539062 0.203125 24.101562 0.0234375 23.75 -0.328125 C 23.394531 -0.679688 23.21875 -1.117188 23.21875 -1.640625 L 23.21875 -12.53125 L 7.703125 -12.53125 L 7.703125 -1.640625 C 7.703125 -1.117188 7.515625 -0.679688 7.140625 -0.328125 C 6.773438 0.0234375 6.332031 0.203125 5.8125 0.203125 Z M 5.8125 0.203125" transform="translate(7.45 215.857)"/></g></g></g><g fill="#FFF"><g><g><path d="M 5.8125 0 C 5.289062 0 4.851562 -0.175781 4.5 -0.53125 C 4.144531 -0.882812 3.96875 -1.320312 3.96875 -1.84375 L 3.96875 -26.703125 C 3.96875 -27.222656 4.144531 -27.664062 4.5 -28.03125 C 4.851562 -28.394531 5.289062 -28.578125 5.8125 -28.578125 L 22.234375 -28.578125 C 22.722656 -28.578125 23.140625 -28.40625 23.484375 -28.0625 C 23.828125 -27.726562 24 -27.316406 24 -26.828125 C 24 -26.335938 23.828125 -25.925781 23.484375 -25.59375 C 23.140625 -25.269531 22.722656 -25.109375 22.234375 -25.109375 L 7.703125 -25.109375 L 7.703125 -16.046875 L 20.765625 -16.046875 C 21.253906 -16.046875 21.671875 -15.875 22.015625 -15.53125 C 22.359375 -15.195312 22.53125 -14.785156 22.53125 -14.296875 C 22.53125 -13.804688 22.359375 -13.394531 22.015625 -13.0625 C 21.671875 -12.738281 21.253906 -12.578125 20.765625 -12.578125 L 7.703125 -12.578125 L 7.703125 -3.484375 L 22.234375 -3.484375 C 22.722656 -3.484375 23.140625 -3.3125 23.484375 -2.96875 C 23.828125 -2.625 24 -2.207031 24 -1.71875 C 24 -1.226562 23.828125 -0.816406 23.484375 -0.484375 C 23.140625 -0.160156 22.722656 0 22.234375 0 Z M 5.8125 0" transform="translate(44.106 215.857)"/></g></g></g><g fill="#FFF"><g><g><path d="M 3.515625 0.203125 C 3.054688 0.203125 2.65625 0.0351562 2.3125 -0.296875 C 1.96875 -0.640625 1.796875 -1.046875 1.796875 -1.515625 C 1.796875 -1.953125 1.921875 -2.332031 2.171875 -2.65625 L 11.625 -14.296875 L 2.25 -25.84375 C 2.007812 -26.164062 1.890625 -26.546875 1.890625 -26.984375 C 1.890625 -27.503906 2.054688 -27.9375 2.390625 -28.28125 C 2.734375 -28.625 3.164062 -28.796875 3.6875 -28.796875 C 3.988281 -28.796875 4.273438 -28.722656 4.546875 -28.578125 C 4.816406 -28.441406 5.035156 -28.265625 5.203125 -28.046875 L 13.84375 -17.078125 L 22.484375 -28.140625 C 22.785156 -28.578125 23.234375 -28.796875 23.828125 -28.796875 C 24.328125 -28.796875 24.753906 -28.625 25.109375 -28.28125 C 25.460938 -27.9375 25.640625 -27.519531 25.640625 -27.03125 C 25.640625 -26.644531 25.53125 -26.300781 25.3125 -26 L 15.84375 -14.328125 L 25.3125 -2.703125 C 25.550781 -2.429688 25.671875 -2.078125 25.671875 -1.640625 C 25.671875 -1.117188 25.5 -0.679688 25.15625 -0.328125 C 24.820312 0.0234375 24.378906 0.203125 23.828125 0.203125 C 23.234375 0.203125 22.742188 -0.0546875 22.359375 -0.578125 L 13.59375 -11.59375 L 4.953125 -0.53125 C 4.546875 -0.0390625 4.066406 0.203125 3.515625 0.203125 Z M 3.515625 0.203125" transform="translate(75.971 215.857)"/></g></g></g><g fill="#FFF"><g><g><path d="M 3.890625 0.203125 C 3.347656 0.203125 2.90625 0.0234375 2.5625 -0.328125 C 2.21875 -0.679688 2.046875 -1.117188 2.046875 -1.640625 C 2.046875 -1.859375 2.113281 -2.128906 2.25 -2.453125 L 12.703125 -27.109375 C 12.910156 -27.597656 13.210938 -28 13.609375 -28.3125 C 14.003906 -28.632812 14.492188 -28.796875 15.078125 -28.796875 L 15.484375 -28.796875 C 16.054688 -28.796875 16.539062 -28.632812 16.9375 -28.3125 C 17.332031 -28 17.640625 -27.597656 17.859375 -27.109375 L 28.296875 -2.453125 C 28.429688 -2.128906 28.5 -1.859375 28.5 -1.640625 C 28.5 -1.117188 28.328125 -0.679688 27.984375 -0.328125 C 27.648438 0.0234375 27.207031 0.203125 26.65625 0.203125 C 26.28125 0.203125 25.929688 0.101562 25.609375 -0.09375 C 25.296875 -0.300781 25.0625 -0.582031 24.90625 -0.9375 L 22.234375 -7.328125 L 8.3125 -7.328125 L 5.65625 -0.9375 C 5.488281 -0.582031 5.25 -0.300781 4.9375 -0.09375 C 4.625 0.101562 4.273438 0.203125 3.890625 0.203125 Z M 9.75 -10.734375 L 20.796875 -10.734375 L 15.28125 -24.046875 Z M 9.75 -10.734375" transform="translate(109.188 215.857)"/></g></g></g><g fill="#FFF"><g><g><path d="M 16.625 0.40625 C 13.8125 0.40625 11.3125 -0.210938 9.125 -1.453125 C 6.945312 -2.691406 5.253906 -4.425781 4.046875 -6.65625 C 2.847656 -8.882812 2.25 -11.414062 2.25 -14.25 C 2.25 -17.144531 2.875 -19.710938 4.125 -21.953125 C 5.382812 -24.191406 7.097656 -25.925781 9.265625 -27.15625 C 11.441406 -28.382812 13.851562 -29 16.5 -29 C 18.632812 -29 20.5 -28.738281 22.09375 -28.21875 C 23.6875 -27.695312 25.222656 -26.972656 26.703125 -26.046875 C 26.921875 -25.929688 27.109375 -25.738281 27.265625 -25.46875 C 27.429688 -25.195312 27.515625 -24.898438 27.515625 -24.578125 C 27.515625 -24.109375 27.359375 -23.707031 27.046875 -23.375 C 26.734375 -23.050781 26.316406 -22.890625 25.796875 -22.890625 C 25.492188 -22.890625 25.207031 -22.957031 24.9375 -23.09375 C 23.65625 -23.863281 22.375 -24.4375 21.09375 -24.8125 C 19.8125 -25.195312 18.414062 -25.390625 16.90625 -25.390625 C 14.832031 -25.390625 12.960938 -24.953125 11.296875 -24.078125 C 9.640625 -23.203125 8.335938 -21.925781 7.390625 -20.25 C 6.453125 -18.570312 5.984375 -16.570312 5.984375 -14.25 C 5.984375 -12.125 6.425781 -10.21875 7.3125 -8.53125 C 8.195312 -6.851562 9.476562 -5.53125 11.15625 -4.5625 C 12.832031 -3.59375 14.820312 -3.109375 17.125 -3.109375 C 19.6875 -3.109375 22.070312 -3.710938 24.28125 -4.921875 L 24.28125 -12.328125 L 17.53125 -12.328125 C 17.0625 -12.328125 16.660156 -12.488281 16.328125 -12.8125 C 16.003906 -13.144531 15.84375 -13.539062 15.84375 -14 C 15.84375 -14.46875 16.003906 -14.863281 16.328125 -15.1875 C 16.660156 -15.519531 17.0625 -15.6875 17.53125 -15.6875 L 25.59375 -15.6875 C 26.144531 -15.6875 26.609375 -15.492188 26.984375 -15.109375 C 27.367188 -14.722656 27.5625 -14.257812 27.5625 -13.71875 L 27.5625 -4.421875 C 27.5625 -3.847656 27.414062 -3.335938 27.125 -2.890625 C 26.84375 -2.441406 26.46875 -2.109375 26 -1.890625 C 22.945312 -0.359375 19.820312 0.40625 16.625 0.40625 Z M 16.625 0.40625" transform="translate(145.477 215.857)"/></g></g></g><g fill="#FFF"><g><g><path d="M 16.625 0.40625 C 13.757812 0.40625 11.25 -0.21875 9.09375 -1.46875 C 6.9375 -2.726562 5.269531 -4.460938 4.09375 -6.671875 C 2.914062 -8.890625 2.300781 -11.429688 2.25 -14.296875 C 2.300781 -17.160156 2.914062 -19.695312 4.09375 -21.90625 C 5.269531 -24.125 6.9375 -25.859375 9.09375 -27.109375 C 11.25 -28.367188 13.757812 -29 16.625 -29 C 19.488281 -29 21.992188 -28.367188 24.140625 -27.109375 C 26.285156 -25.859375 27.953125 -24.117188 29.140625 -21.890625 C 30.328125 -19.660156 30.945312 -17.128906 31 -14.296875 C 30.945312 -11.453125 30.328125 -8.914062 29.140625 -6.6875 C 27.953125 -4.46875 26.285156 -2.726562 24.140625 -1.46875 C 21.992188 -0.21875 19.488281 0.40625 16.625 0.40625 Z M 16.625 -3.078125 C 18.8125 -3.078125 20.707031 -3.566406 22.3125 -4.546875 C 23.925781 -5.523438 25.15625 -6.859375 26 -8.546875 C 26.851562 -10.242188 27.28125 -12.160156 27.28125 -14.296875 C 27.28125 -16.421875 26.851562 -18.328125 26 -20.015625 C 25.15625 -21.710938 23.925781 -23.050781 22.3125 -24.03125 C 20.707031 -25.019531 18.8125 -25.515625 16.625 -25.515625 C 14.414062 -25.515625 12.507812 -25.019531 10.90625 -24.03125 C 9.3125 -23.050781 8.09375 -21.710938 7.25 -20.015625 C 6.40625 -18.328125 5.984375 -16.421875 5.984375 -14.296875 C 5.984375 -12.160156 6.40625 -10.242188 7.25 -8.546875 C 8.09375 -6.859375 9.3125 -5.523438 10.90625 -4.546875 C 12.507812 -3.566406 14.414062 -3.078125 16.625 -3.078125 Z M 16.625 -3.078125" transform="translate(182.216 215.857)"/></g></g></g><g fill="#FFF"><g><g><path d="M 5.8125 0.203125 C 5.289062 0.203125 4.851562 0.0234375 4.5 -0.328125 C 4.144531 -0.679688 3.96875 -1.117188 3.96875 -1.640625 L 3.96875 -26.09375 C 3.96875 -26.820312 4.226562 -27.453125 4.75 -27.984375 C 5.269531 -28.523438 5.898438 -28.796875 6.640625 -28.796875 L 7.171875 -28.796875 C 8.046875 -28.796875 8.796875 -28.382812 9.421875 -27.5625 L 25.1875 -4.796875 L 25.1875 -26.90625 C 25.1875 -27.425781 25.363281 -27.867188 25.71875 -28.234375 C 26.070312 -28.609375 26.507812 -28.796875 27.03125 -28.796875 C 27.550781 -28.796875 27.992188 -28.609375 28.359375 -28.234375 C 28.722656 -27.867188 28.90625 -27.425781 28.90625 -26.90625 L 28.90625 -2.453125 C 28.90625 -1.710938 28.640625 -1.082031 28.109375 -0.5625 C 27.578125 -0.0507812 26.941406 0.203125 26.203125 0.203125 L 25.71875 0.203125 C 25.28125 0.203125 24.867188 0.101562 24.484375 -0.09375 C 24.109375 -0.300781 23.796875 -0.570312 23.546875 -0.90625 L 7.703125 -23.796875 L 7.703125 -1.640625 C 7.703125 -1.117188 7.515625 -0.679688 7.140625 -0.328125 C 6.773438 0.0234375 6.332031 0.203125 5.8125 0.203125 Z M 5.8125 0.203125" transform="translate(221.207 215.857)"/></g></g></g><g fill="#9171A2"><g><g><path d="M 5.921875 0.09375 C 5.671875 0.09375 5.460938 0.0078125 5.296875 -0.15625 C 5.128906 -0.320312 5.046875 -0.53125 5.046875 -0.78125 L 5.046875 -11.9375 L 1.078125 -11.9375 C 0.835938 -11.9375 0.640625 -12.015625 0.484375 -12.171875 C 0.328125 -12.328125 0.25 -12.519531 0.25 -12.75 C 0.25 -12.988281 0.328125 -13.1875 0.484375 -13.34375 C 0.640625 -13.507812 0.835938 -13.59375 1.078125 -13.59375 L 10.765625 -13.59375 C 10.992188 -13.59375 11.191406 -13.507812 11.359375 -13.34375 C 11.523438 -13.1875 11.609375 -12.988281 11.609375 -12.75 C 11.609375 -12.519531 11.523438 -12.328125 11.359375 -12.171875 C 11.191406 -12.015625 10.992188 -11.9375 10.765625 -11.9375 L 6.8125 -11.9375 L 6.8125 -0.78125 C 6.8125 -0.53125 6.722656 -0.320312 6.546875 -0.15625 C 6.367188 0.0078125 6.160156 0.09375 5.921875 0.09375 Z M 5.921875 0.09375" transform="translate(60.689 243.832)"/></g></g></g><g fill="#9171A2"><g><g><path d="M 2.765625 0 C 2.515625 0 2.304688 -0.0820312 2.140625 -0.25 C 1.972656 -0.414062 1.890625 -0.625 1.890625 -0.875 L 1.890625 -12.6875 C 1.890625 -12.9375 1.972656 -13.148438 2.140625 -13.328125 C 2.304688 -13.503906 2.515625 -13.59375 2.765625 -13.59375 L 10.578125 -13.59375 C 10.804688 -13.59375 11 -13.507812 11.15625 -13.34375 C 11.320312 -13.1875 11.40625 -12.988281 11.40625 -12.75 C 11.40625 -12.519531 11.320312 -12.328125 11.15625 -12.171875 C 11 -12.015625 10.804688 -11.9375 10.578125 -11.9375 L 3.65625 -11.9375 L 3.65625 -7.625 L 9.875 -7.625 C 10.101562 -7.625 10.296875 -7.539062 10.453125 -7.375 C 10.617188 -7.21875 10.703125 -7.023438 10.703125 -6.796875 C 10.703125 -6.554688 10.617188 -6.359375 10.453125 -6.203125 C 10.296875 -6.054688 10.101562 -5.984375 9.875 -5.984375 L 3.65625 -5.984375 L 3.65625 -1.65625 L 10.578125 -1.65625 C 10.804688 -1.65625 11 -1.570312 11.15625 -1.40625 C 11.320312 -1.25 11.40625 -1.050781 11.40625 -0.8125 C 11.40625 -0.582031 11.320312 -0.390625 11.15625 -0.234375 C 11 -0.078125 10.804688 0 10.578125 0 Z M 2.765625 0" transform="translate(75.261 243.832)"/></g></g></g><g fill="#9171A2"><g><g><path d="M 7.890625 0.1875 C 6.585938 0.1875 5.421875 -0.09375 4.390625 -0.65625 C 3.359375 -1.21875 2.546875 -2.023438 1.953125 -3.078125 C 1.367188 -4.140625 1.078125 -5.378906 1.078125 -6.796875 C 1.078125 -8.210938 1.367188 -9.445312 1.953125 -10.5 C 2.546875 -11.5625 3.359375 -12.375 4.390625 -12.9375 C 5.421875 -13.5 6.585938 -13.78125 7.890625 -13.78125 C 8.765625 -13.78125 9.550781 -13.675781 10.25 -13.46875 C 10.945312 -13.257812 11.640625 -12.960938 12.328125 -12.578125 C 12.609375 -12.421875 12.75 -12.175781 12.75 -11.84375 C 12.75 -11.644531 12.675781 -11.46875 12.53125 -11.3125 C 12.394531 -11.164062 12.207031 -11.09375 11.96875 -11.09375 C 11.84375 -11.09375 11.726562 -11.117188 11.625 -11.171875 C 11.050781 -11.472656 10.488281 -11.703125 9.9375 -11.859375 C 9.394531 -12.015625 8.769531 -12.09375 8.0625 -12.09375 C 6.945312 -12.09375 5.992188 -11.859375 5.203125 -11.390625 C 4.421875 -10.929688 3.832031 -10.300781 3.4375 -9.5 C 3.039062 -8.707031 2.84375 -7.804688 2.84375 -6.796875 C 2.84375 -5.785156 3.039062 -4.878906 3.4375 -4.078125 C 3.832031 -3.273438 4.421875 -2.644531 5.203125 -2.1875 C 5.992188 -1.726562 6.945312 -1.5 8.0625 -1.5 C 8.769531 -1.5 9.394531 -1.578125 9.9375 -1.734375 C 10.488281 -1.890625 11.050781 -2.117188 11.625 -2.421875 C 11.726562 -2.460938 11.84375 -2.484375 11.96875 -2.484375 C 12.207031 -2.484375 12.394531 -2.410156 12.53125 -2.265625 C 12.675781 -2.128906 12.75 -1.957031 12.75 -1.75 C 12.75 -1.414062 12.609375 -1.171875 12.328125 -1.015625 C 11.640625 -0.617188 10.945312 -0.316406 10.25 -0.109375 C 9.550781 0.0859375 8.765625 0.1875 7.890625 0.1875 Z M 7.890625 0.1875" transform="translate(90.398 243.832)"/></g></g></g><g fill="#9171A2"><g><g><path d="M 2.765625 0.09375 C 2.515625 0.09375 2.304688 0.0078125 2.140625 -0.15625 C 1.972656 -0.320312 1.890625 -0.53125 1.890625 -0.78125 L 1.890625 -12.796875 C 1.890625 -13.035156 1.972656 -13.242188 2.140625 -13.421875 C 2.304688 -13.597656 2.515625 -13.6875 2.765625 -13.6875 C 3.015625 -13.6875 3.222656 -13.597656 3.390625 -13.421875 C 3.566406 -13.242188 3.65625 -13.035156 3.65625 -12.796875 L 3.65625 -7.609375 L 11.03125 -7.609375 L 11.03125 -12.796875 C 11.03125 -13.035156 11.113281 -13.242188 11.28125 -13.421875 C 11.457031 -13.597656 11.671875 -13.6875 11.921875 -13.6875 C 12.160156 -13.6875 12.367188 -13.597656 12.546875 -13.421875 C 12.722656 -13.242188 12.8125 -13.035156 12.8125 -12.796875 L 12.8125 -0.78125 C 12.8125 -0.53125 12.722656 -0.320312 12.546875 -0.15625 C 12.367188 0.0078125 12.160156 0.09375 11.921875 0.09375 C 11.671875 0.09375 11.457031 0.0078125 11.28125 -0.15625 C 11.113281 -0.320312 11.03125 -0.53125 11.03125 -0.78125 L 11.03125 -5.953125 L 3.65625 -5.953125 L 3.65625 -0.78125 C 3.65625 -0.53125 3.566406 -0.320312 3.390625 -0.15625 C 3.222656 0.0078125 3.015625 0.09375 2.765625 0.09375 Z M 2.765625 0.09375" transform="translate(106.644 243.832)"/></g></g></g><g fill="#9171A2"><g><g><path d="M 6.171875 0.1875 C 4.523438 0.1875 2.976562 -0.117188 1.53125 -0.734375 C 1.375 -0.804688 1.242188 -0.914062 1.140625 -1.0625 C 1.046875 -1.207031 1 -1.363281 1 -1.53125 C 1 -1.757812 1.070312 -1.953125 1.21875 -2.109375 C 1.363281 -2.273438 1.554688 -2.359375 1.796875 -2.359375 C 1.921875 -2.359375 2.039062 -2.332031 2.15625 -2.28125 C 3.351562 -1.75 4.632812 -1.484375 6 -1.484375 C 8.269531 -1.484375 9.40625 -2.226562 9.40625 -3.71875 C 9.40625 -4.101562 9.257812 -4.425781 8.96875 -4.6875 C 8.675781 -4.945312 8.316406 -5.148438 7.890625 -5.296875 C 7.460938 -5.453125 6.851562 -5.632812 6.0625 -5.84375 C 5.007812 -6.113281 4.15625 -6.375 3.5 -6.625 C 2.851562 -6.882812 2.296875 -7.265625 1.828125 -7.765625 C 1.359375 -8.273438 1.125 -8.953125 1.125 -9.796875 C 1.125 -10.535156 1.316406 -11.207031 1.703125 -11.8125 C 2.097656 -12.414062 2.675781 -12.894531 3.4375 -13.25 C 4.195312 -13.601562 5.109375 -13.78125 6.171875 -13.78125 C 7.597656 -13.78125 8.890625 -13.566406 10.046875 -13.140625 C 10.410156 -13.015625 10.59375 -12.753906 10.59375 -12.359375 C 10.59375 -12.148438 10.519531 -11.960938 10.375 -11.796875 C 10.226562 -11.628906 10.039062 -11.546875 9.8125 -11.546875 C 9.738281 -11.546875 9.632812 -11.570312 9.5 -11.625 C 8.488281 -11.976562 7.441406 -12.15625 6.359375 -12.15625 C 5.335938 -12.15625 4.503906 -11.957031 3.859375 -11.5625 C 3.222656 -11.175781 2.90625 -10.628906 2.90625 -9.921875 C 2.90625 -9.460938 3.054688 -9.085938 3.359375 -8.796875 C 3.660156 -8.503906 4.039062 -8.273438 4.5 -8.109375 C 4.96875 -7.941406 5.597656 -7.769531 6.390625 -7.59375 C 7.410156 -7.34375 8.234375 -7.09375 8.859375 -6.84375 C 9.492188 -6.601562 10.035156 -6.222656 10.484375 -5.703125 C 10.929688 -5.179688 11.15625 -4.484375 11.15625 -3.609375 C 11.15625 -2.878906 10.945312 -2.222656 10.53125 -1.640625 C 10.113281 -1.066406 9.53125 -0.617188 8.78125 -0.296875 C 8.03125 0.0234375 7.160156 0.1875 6.171875 0.1875 Z M 6.171875 0.1875" transform="translate(124.056 243.832)"/></g></g></g><g fill="#9171A2"><g><g><path d="M 5.921875 0.09375 C 5.671875 0.09375 5.460938 0.0078125 5.296875 -0.15625 C 5.128906 -0.320312 5.046875 -0.53125 5.046875 -0.78125 L 5.046875 -11.9375 L 1.078125 -11.9375 C 0.835938 -11.9375 0.640625 -12.015625 0.484375 -12.171875 C 0.328125 -12.328125 0.25 -12.519531 0.25 -12.75 C 0.25 -12.988281 0.328125 -13.1875 0.484375 -13.34375 C 0.640625 -13.507812 0.835938 -13.59375 1.078125 -13.59375 L 10.765625 -13.59375 C 10.992188 -13.59375 11.191406 -13.507812 11.359375 -13.34375 C 11.523438 -13.1875 11.609375 -12.988281 11.609375 -12.75 C 11.609375 -12.519531 11.523438 -12.328125 11.359375 -12.171875 C 11.191406 -12.015625 10.992188 -11.9375 10.765625 -11.9375 L 6.8125 -11.9375 L 6.8125 -0.78125 C 6.8125 -0.53125 6.722656 -0.320312 6.546875 -0.15625 C 6.367188 0.0078125 6.160156 0.09375 5.921875 0.09375 Z M 5.921875 0.09375" transform="translate(138.765 243.832)"/></g></g></g><g fill="#9171A2"><g><g><path d="M 7.90625 0.1875 C 6.539062 0.1875 5.34375 -0.109375 4.3125 -0.703125 C 3.289062 -1.296875 2.5 -2.117188 1.9375 -3.171875 C 1.382812 -4.222656 1.097656 -5.429688 1.078125 -6.796875 C 1.097656 -8.160156 1.382812 -9.367188 1.9375 -10.421875 C 2.5 -11.472656 3.289062 -12.296875 4.3125 -12.890625 C 5.34375 -13.484375 6.539062 -13.78125 7.90625 -13.78125 C 9.269531 -13.78125 10.457031 -13.484375 11.46875 -12.890625 C 12.488281 -12.296875 13.28125 -11.46875 13.84375 -10.40625 C 14.414062 -9.34375 14.710938 -8.140625 14.734375 -6.796875 C 14.710938 -5.441406 14.414062 -4.234375 13.84375 -3.171875 C 13.28125 -2.117188 12.488281 -1.296875 11.46875 -0.703125 C 10.457031 -0.109375 9.269531 0.1875 7.90625 0.1875 Z M 7.90625 -1.453125 C 8.945312 -1.453125 9.847656 -1.6875 10.609375 -2.15625 C 11.378906 -2.625 11.960938 -3.257812 12.359375 -4.0625 C 12.765625 -4.875 12.96875 -5.785156 12.96875 -6.796875 C 12.96875 -7.804688 12.765625 -8.710938 12.359375 -9.515625 C 11.960938 -10.328125 11.378906 -10.960938 10.609375 -11.421875 C 9.847656 -11.890625 8.945312 -12.125 7.90625 -12.125 C 6.851562 -12.125 5.945312 -11.890625 5.1875 -11.421875 C 4.425781 -10.960938 3.84375 -10.328125 3.4375 -9.515625 C 3.039062 -8.710938 2.84375 -7.804688 2.84375 -6.796875 C 2.84375 -5.785156 3.039062 -4.875 3.4375 -4.0625 C 3.84375 -3.257812 4.425781 -2.625 5.1875 -2.15625 C 5.945312 -1.6875 6.851562 -1.453125 7.90625 -1.453125 Z M 7.90625 -1.453125" transform="translate(153.338 243.832)"/></g></g></g><g fill="#9171A2"><g><g><path d="M 2.765625 0.09375 C 2.515625 0.09375 2.304688 0.0078125 2.140625 -0.15625 C 1.972656 -0.320312 1.890625 -0.53125 1.890625 -0.78125 L 1.890625 -12.6875 C 1.890625 -12.9375 1.972656 -13.148438 2.140625 -13.328125 C 2.304688 -13.503906 2.515625 -13.59375 2.765625 -13.59375 L 7.296875 -13.59375 C 9.066406 -13.59375 10.390625 -13.226562 11.265625 -12.5 C 12.148438 -11.769531 12.59375 -10.816406 12.59375 -9.640625 C 12.59375 -8.859375 12.375 -8.144531 11.9375 -7.5 C 11.507812 -6.863281 10.878906 -6.398438 10.046875 -6.109375 C 10.984375 -5.867188 11.625 -5.289062 11.96875 -4.375 C 12.3125 -3.457031 12.484375 -2.554688 12.484375 -1.671875 L 12.484375 -0.78125 C 12.484375 -0.53125 12.394531 -0.320312 12.21875 -0.15625 C 12.050781 0.0078125 11.847656 0.09375 11.609375 0.09375 C 11.328125 0.09375 11.101562 0.015625 10.9375 -0.140625 C 10.78125 -0.304688 10.703125 -0.519531 10.703125 -0.78125 L 10.703125 -1.359375 C 10.703125 -2.015625 10.644531 -2.613281 10.53125 -3.15625 C 10.414062 -3.707031 10.132812 -4.203125 9.6875 -4.640625 C 9.25 -5.078125 8.582031 -5.296875 7.6875 -5.296875 L 3.65625 -5.296875 L 3.65625 -0.78125 C 3.65625 -0.53125 3.566406 -0.320312 3.390625 -0.15625 C 3.222656 0.0078125 3.015625 0.09375 2.765625 0.09375 Z M 7.1875 -6.96875 C 8.300781 -6.96875 9.1875 -7.1875 9.84375 -7.625 C 10.5 -8.070312 10.828125 -8.695312 10.828125 -9.5 C 10.828125 -10.28125 10.539062 -10.878906 9.96875 -11.296875 C 9.40625 -11.710938 8.445312 -11.921875 7.09375 -11.921875 L 3.65625 -11.921875 L 3.65625 -6.96875 Z M 7.1875 -6.96875" transform="translate(171.86 243.832)"/></g></g></g><g fill="#9171A2"><g><g><path d="M 2.765625 0 C 2.515625 0 2.304688 -0.0820312 2.140625 -0.25 C 1.972656 -0.414062 1.890625 -0.625 1.890625 -0.875 L 1.890625 -12.6875 C 1.890625 -12.9375 1.972656 -13.148438 2.140625 -13.328125 C 2.304688 -13.503906 2.515625 -13.59375 2.765625 -13.59375 L 10.578125 -13.59375 C 10.804688 -13.59375 11 -13.507812 11.15625 -13.34375 C 11.320312 -13.1875 11.40625 -12.988281 11.40625 -12.75 C 11.40625 -12.519531 11.320312 -12.328125 11.15625 -12.171875 C 11 -12.015625 10.804688 -11.9375 10.578125 -11.9375 L 3.65625 -11.9375 L 3.65625 -7.625 L 9.875 -7.625 C 10.101562 -7.625 10.296875 -7.539062 10.453125 -7.375 C 10.617188 -7.21875 10.703125 -7.023438 10.703125 -6.796875 C 10.703125 -6.554688 10.617188 -6.359375 10.453125 -6.203125 C 10.296875 -6.054688 10.101562 -5.984375 9.875 -5.984375 L 3.65625 -5.984375 L 3.65625 -1.65625 L 10.578125 -1.65625 C 10.804688 -1.65625 11 -1.570312 11.15625 -1.40625 C 11.320312 -1.25 11.40625 -1.050781 11.40625 -0.8125 C 11.40625 -0.582031 11.320312 -0.390625 11.15625 -0.234375 C 11 -0.078125 10.804688 0 10.578125 0 Z M 2.765625 0" transform="translate(188.436 243.832)"/></g></g></g></svg>