<svg xmlns="http://www.w3.org/2000/svg" xmlns:xlink="http://www.w3.org/1999/xlink" width="375" viewBox="0 0 375 375" height="375" version="1.0"><defs><clipPath id="a"><path d="M 24.886719 1 L 350.386719 1 L 350.386719 374 L 24.886719 374 Z M 24.886719 1"/></clipPath><clipPath id="b"><path d="M 251.785156 62.253906 L 201.507812 91.257812 C 200.871094 91.613281 200.289062 92.046875 199.769531 92.558594 C 199.25 93.074219 198.808594 93.644531 198.441406 94.277344 C 198.078125 94.910156 197.800781 95.578125 197.617188 96.285156 C 197.433594 96.992188 197.347656 97.710938 197.359375 98.441406 L 197.359375 156.53125 C 197.359375 156.894531 197.382812 157.253906 197.429688 157.613281 C 197.476562 157.972656 197.546875 158.328125 197.640625 158.675781 C 197.734375 159.027344 197.851562 159.371094 197.992188 159.703125 C 198.128906 160.039062 198.289062 160.363281 198.46875 160.675781 C 198.652344 160.992188 198.851562 161.292969 199.074219 161.582031 C 199.292969 161.867188 199.535156 162.140625 199.789062 162.394531 C 200.046875 162.652344 200.320312 162.890625 200.605469 163.109375 C 200.894531 163.332031 201.195312 163.53125 201.507812 163.714844 C 201.824219 163.894531 202.148438 164.054688 202.484375 164.195312 C 202.816406 164.332031 203.160156 164.449219 203.511719 164.542969 C 203.859375 164.636719 204.214844 164.707031 204.574219 164.753906 C 204.933594 164.800781 205.296875 164.824219 205.660156 164.824219 C 206.023438 164.824219 206.382812 164.800781 206.742188 164.753906 C 207.101562 164.707031 207.457031 164.636719 207.808594 164.542969 C 208.15625 164.449219 208.5 164.335938 208.835938 164.195312 C 209.171875 164.058594 209.496094 163.898438 209.808594 163.714844 L 260.082031 134.71875 C 260.71875 134.363281 261.296875 133.925781 261.820312 133.414062 C 262.339844 132.902344 262.78125 132.328125 263.148438 131.695312 C 263.515625 131.0625 263.789062 130.394531 263.972656 129.6875 C 264.15625 128.980469 264.246094 128.261719 264.234375 127.53125 L 264.234375 69.433594 C 264.234375 69.070312 264.210938 68.707031 264.164062 68.347656 C 264.117188 67.988281 264.046875 67.636719 263.953125 67.285156 C 263.859375 66.933594 263.742188 66.59375 263.605469 66.257812 C 263.464844 65.921875 263.304688 65.597656 263.125 65.285156 C 262.941406 64.972656 262.742188 64.671875 262.519531 64.382812 C 262.300781 64.097656 262.0625 63.824219 261.804688 63.566406 C 261.546875 63.3125 261.277344 63.074219 260.988281 62.851562 C 260.699219 62.632812 260.398438 62.429688 260.085938 62.25 C 259.769531 62.066406 259.445312 61.90625 259.113281 61.769531 C 258.777344 61.628906 258.433594 61.515625 258.082031 61.421875 C 257.734375 61.328125 257.378906 61.257812 257.019531 61.207031 C 256.660156 61.160156 256.296875 61.136719 255.933594 61.136719 C 255.574219 61.136719 255.210938 61.160156 254.851562 61.207031 C 254.492188 61.253906 254.136719 61.324219 253.785156 61.417969 C 253.4375 61.511719 253.09375 61.628906 252.757812 61.769531 C 252.421875 61.90625 252.097656 62.066406 251.785156 62.246094 Z M 337.929688 163.722656 L 287.570312 134.675781 C 286.933594 134.316406 286.355469 133.882812 285.835938 133.371094 C 285.3125 132.855469 284.871094 132.285156 284.507812 131.652344 C 284.140625 131.019531 283.867188 130.351562 283.683594 129.644531 C 283.5 128.9375 283.410156 128.21875 283.421875 127.488281 L 283.421875 69.398438 C 283.421875 69.035156 283.445312 68.675781 283.492188 68.316406 C 283.539062 67.957031 283.613281 67.605469 283.707031 67.253906 C 283.800781 66.902344 283.917969 66.5625 284.054688 66.226562 C 284.195312 65.890625 284.355469 65.566406 284.535156 65.253906 C 284.71875 64.941406 284.917969 64.640625 285.140625 64.351562 C 285.359375 64.066406 285.597656 63.792969 285.855469 63.539062 C 286.113281 63.28125 286.382812 63.042969 286.671875 62.824219 C 286.960938 62.601562 287.261719 62.402344 287.574219 62.21875 C 287.886719 62.039062 288.210938 61.878906 288.546875 61.742188 C 288.882812 61.601562 289.226562 61.488281 289.574219 61.390625 C 289.925781 61.296875 290.28125 61.226562 290.640625 61.179688 C 291 61.132812 291.359375 61.109375 291.722656 61.109375 C 292.085938 61.109375 292.445312 61.132812 292.804688 61.179688 C 293.164062 61.226562 293.519531 61.296875 293.871094 61.390625 C 294.222656 61.484375 294.5625 61.601562 294.898438 61.742188 C 295.234375 61.878906 295.558594 62.039062 295.871094 62.21875 L 346.234375 91.265625 C 346.871094 91.625 347.449219 92.058594 347.96875 92.570312 C 348.492188 93.082031 348.933594 93.65625 349.300781 94.289062 C 349.664062 94.921875 349.941406 95.589844 350.125 96.296875 C 350.308594 97.003906 350.398438 97.722656 350.386719 98.453125 L 350.386719 156.53125 C 350.386719 156.894531 350.363281 157.253906 350.316406 157.613281 C 350.265625 157.972656 350.195312 158.328125 350.101562 158.675781 C 350.007812 159.027344 349.890625 159.371094 349.753906 159.703125 C 349.613281 160.039062 349.453125 160.363281 349.273438 160.675781 C 349.089844 160.992188 348.890625 161.292969 348.667969 161.578125 C 348.449219 161.867188 348.207031 162.140625 347.953125 162.394531 C 347.695312 162.652344 347.421875 162.890625 347.136719 163.109375 C 346.847656 163.332031 346.546875 163.53125 346.230469 163.714844 C 345.917969 163.894531 345.59375 164.054688 345.257812 164.191406 C 344.921875 164.332031 344.582031 164.449219 344.230469 164.542969 C 343.878906 164.636719 343.523438 164.707031 343.164062 164.753906 C 342.804688 164.800781 342.445312 164.824219 342.082031 164.824219 C 341.71875 164.824219 341.359375 164.800781 341 164.753906 C 340.636719 164.707031 340.285156 164.636719 339.933594 164.542969 C 339.582031 164.449219 339.238281 164.332031 338.90625 164.195312 C 338.570312 164.058594 338.242188 163.898438 337.929688 163.714844 Z M 283.414062 247.570312 L 283.414062 305.574219 C 283.417969 305.933594 283.441406 306.296875 283.488281 306.65625 C 283.535156 307.015625 283.605469 307.371094 283.699219 307.71875 C 283.792969 308.070312 283.910156 308.410156 284.050781 308.746094 C 284.1875 309.082031 284.347656 309.40625 284.53125 309.71875 C 284.710938 310.035156 284.914062 310.335938 285.132812 310.621094 C 285.355469 310.910156 285.59375 311.179688 285.851562 311.4375 C 286.105469 311.691406 286.378906 311.929688 286.667969 312.152344 C 286.957031 312.371094 287.257812 312.574219 287.570312 312.753906 C 287.882812 312.9375 288.207031 313.097656 288.542969 313.234375 C 288.878906 313.375 289.222656 313.488281 289.574219 313.582031 C 289.921875 313.675781 290.277344 313.75 290.636719 313.796875 C 290.996094 313.84375 291.359375 313.867188 291.722656 313.867188 C 292.082031 313.867188 292.445312 313.84375 292.804688 313.796875 C 293.164062 313.75 293.519531 313.679688 293.871094 313.585938 C 294.21875 313.492188 294.5625 313.375 294.898438 313.238281 C 295.234375 313.097656 295.558594 312.9375 295.871094 312.757812 L 346.226562 283.710938 C 346.867188 283.355469 347.445312 282.917969 347.964844 282.40625 C 348.484375 281.894531 348.929688 281.320312 349.292969 280.691406 C 349.660156 280.058594 349.933594 279.386719 350.121094 278.679688 C 350.304688 277.972656 350.390625 277.253906 350.382812 276.527344 L 350.382812 218.519531 C 350.382812 218.15625 350.355469 217.796875 350.308594 217.4375 C 350.261719 217.078125 350.191406 216.722656 350.097656 216.371094 C 350.003906 216.023438 349.886719 215.679688 349.746094 215.34375 C 349.609375 215.007812 349.449219 214.683594 349.265625 214.371094 C 349.085938 214.058594 348.882812 213.757812 348.664062 213.46875 C 348.441406 213.183594 348.203125 212.910156 347.945312 212.65625 C 347.691406 212.398438 347.417969 212.160156 347.128906 211.9375 C 346.84375 211.71875 346.539062 211.515625 346.226562 211.335938 C 345.914062 211.15625 345.589844 210.996094 345.253906 210.855469 C 344.917969 210.71875 344.574219 210.601562 344.226562 210.507812 C 343.875 210.414062 343.519531 210.34375 343.160156 210.296875 C 342.800781 210.25 342.4375 210.226562 342.074219 210.222656 C 341.714844 210.222656 341.351562 210.246094 340.992188 210.296875 C 340.632812 210.34375 340.277344 210.414062 339.925781 210.507812 C 339.578125 210.601562 339.234375 210.714844 338.898438 210.855469 C 338.5625 210.992188 338.238281 211.152344 337.925781 211.332031 L 287.570312 240.386719 C 286.933594 240.742188 286.355469 241.175781 285.832031 241.6875 C 285.3125 242.203125 284.871094 242.773438 284.503906 243.40625 C 284.140625 244.039062 283.863281 244.707031 283.679688 245.414062 C 283.496094 246.117188 283.40625 246.835938 283.414062 247.566406 Z M 219.355469 194.738281 C 219.042969 194.554688 218.742188 194.355469 218.453125 194.132812 C 218.164062 193.914062 217.894531 193.675781 217.636719 193.417969 C 217.382812 193.160156 217.140625 192.890625 216.921875 192.601562 C 216.703125 192.3125 216.5 192.011719 216.320312 191.699219 C 216.136719 191.386719 215.976562 191.0625 215.839844 190.726562 C 215.699219 190.390625 215.585938 190.050781 215.492188 189.699219 C 215.398438 189.347656 215.328125 188.992188 215.277344 188.636719 C 215.230469 188.277344 215.207031 187.914062 215.207031 187.550781 C 215.207031 187.191406 215.230469 186.828125 215.277344 186.46875 C 215.328125 186.109375 215.398438 185.753906 215.492188 185.40625 C 215.585938 185.054688 215.699219 184.710938 215.839844 184.378906 C 215.976562 184.042969 216.136719 183.71875 216.320312 183.40625 C 216.5 183.089844 216.703125 182.789062 216.921875 182.503906 C 217.140625 182.214844 217.382812 181.941406 217.636719 181.6875 C 217.894531 181.429688 218.164062 181.191406 218.453125 180.96875 C 218.742188 180.75 219.042969 180.546875 219.355469 180.367188 L 269.714844 151.320312 C 270.34375 150.945312 271.007812 150.660156 271.714844 150.46875 C 272.417969 150.273438 273.136719 150.175781 273.867188 150.175781 C 274.597656 150.175781 275.316406 150.273438 276.019531 150.46875 C 276.722656 150.660156 277.390625 150.945312 278.019531 151.320312 L 328.296875 180.324219 C 328.609375 180.503906 328.910156 180.707031 329.199219 180.925781 C 329.484375 181.148438 329.757812 181.386719 330.015625 181.640625 C 330.269531 181.898438 330.507812 182.167969 330.730469 182.457031 C 330.949219 182.746094 331.152344 183.046875 331.332031 183.359375 C 331.515625 183.671875 331.675781 183.996094 331.8125 184.332031 C 331.953125 184.667969 332.066406 185.007812 332.160156 185.359375 C 332.253906 185.710938 332.324219 186.0625 332.371094 186.421875 C 332.421875 186.78125 332.445312 187.144531 332.445312 187.503906 C 332.445312 187.867188 332.421875 188.230469 332.371094 188.589844 C 332.324219 188.945312 332.253906 189.300781 332.160156 189.652344 C 332.066406 190 331.953125 190.34375 331.8125 190.679688 C 331.671875 191.011719 331.511719 191.335938 331.332031 191.652344 C 331.152344 191.964844 330.949219 192.265625 330.730469 192.554688 C 330.507812 192.839844 330.269531 193.113281 330.015625 193.371094 C 329.757812 193.625 329.484375 193.863281 329.199219 194.085938 C 328.910156 194.304688 328.609375 194.507812 328.296875 194.6875 L 277.9375 223.734375 C 277.308594 224.109375 276.640625 224.394531 275.9375 224.585938 C 275.234375 224.78125 274.515625 224.878906 273.785156 224.878906 C 273.054688 224.878906 272.335938 224.78125 271.632812 224.585938 C 270.925781 224.394531 270.261719 224.109375 269.632812 223.734375 Z M 133.121094 329.421875 L 183.484375 300.367188 C 184.109375 299.992188 184.777344 299.710938 185.480469 299.515625 C 186.183594 299.320312 186.902344 299.226562 187.632812 299.226562 C 188.363281 299.226562 189.082031 299.320312 189.785156 299.515625 C 190.492188 299.710938 191.15625 299.992188 191.785156 300.367188 L 242.144531 329.421875 C 242.460938 329.601562 242.761719 329.800781 243.046875 330.023438 C 243.335938 330.242188 243.605469 330.484375 243.863281 330.738281 C 244.121094 330.996094 244.359375 331.265625 244.578125 331.554688 C 244.800781 331.84375 245 332.140625 245.179688 332.457031 C 245.363281 332.769531 245.523438 333.09375 245.660156 333.429688 C 245.800781 333.765625 245.917969 334.105469 246.011719 334.457031 C 246.105469 334.804688 246.175781 335.160156 246.222656 335.519531 C 246.269531 335.878906 246.292969 336.238281 246.292969 336.601562 C 246.292969 336.964844 246.269531 337.324219 246.222656 337.683594 C 246.175781 338.042969 246.105469 338.398438 246.011719 338.75 C 245.917969 339.097656 245.800781 339.441406 245.660156 339.777344 C 245.523438 340.109375 245.363281 340.433594 245.179688 340.75 C 245 341.0625 244.800781 341.363281 244.578125 341.652344 C 244.359375 341.9375 244.121094 342.210938 243.863281 342.464844 C 243.605469 342.722656 243.335938 342.960938 243.046875 343.183594 C 242.761719 343.402344 242.460938 343.601562 242.144531 343.785156 L 191.785156 372.832031 C 191.15625 373.207031 190.492188 373.492188 189.785156 373.683594 C 189.082031 373.878906 188.363281 373.976562 187.632812 373.976562 C 186.902344 373.976562 186.183594 373.878906 185.480469 373.683594 C 184.777344 373.492188 184.109375 373.207031 183.480469 372.832031 L 133.121094 343.785156 C 132.808594 343.601562 132.507812 343.402344 132.21875 343.183594 C 131.933594 342.960938 131.660156 342.722656 131.402344 342.464844 C 131.148438 342.210938 130.910156 341.9375 130.6875 341.652344 C 130.46875 341.363281 130.265625 341.0625 130.085938 340.75 C 129.902344 340.433594 129.746094 340.109375 129.605469 339.777344 C 129.464844 339.441406 129.351562 339.097656 129.257812 338.75 C 129.164062 338.398438 129.09375 338.042969 129.046875 337.683594 C 128.996094 337.324219 128.972656 336.964844 128.972656 336.601562 C 128.972656 336.238281 128.996094 335.878906 129.046875 335.519531 C 129.09375 335.160156 129.164062 334.804688 129.257812 334.457031 C 129.351562 334.105469 129.464844 333.765625 129.605469 333.429688 C 129.746094 333.09375 129.902344 332.769531 130.085938 332.457031 C 130.265625 332.140625 130.46875 331.839844 130.6875 331.554688 C 130.910156 331.265625 131.148438 330.996094 131.402344 330.738281 C 131.660156 330.484375 131.933594 330.242188 132.21875 330.023438 C 132.507812 329.800781 132.808594 329.601562 133.121094 329.421875 Z M 251.695312 312.792969 C 252.011719 312.972656 252.335938 313.132812 252.671875 313.269531 C 253.003906 313.410156 253.347656 313.523438 253.699219 313.617188 C 254.050781 313.710938 254.402344 313.78125 254.765625 313.832031 C 255.125 313.878906 255.484375 313.902344 255.847656 313.902344 C 256.210938 313.902344 256.570312 313.875 256.929688 313.828125 C 257.289062 313.78125 257.644531 313.710938 257.996094 313.617188 C 258.347656 313.523438 258.6875 313.40625 259.023438 313.269531 C 259.359375 313.128906 259.683594 312.96875 259.996094 312.789062 C 260.3125 312.605469 260.613281 312.40625 260.902344 312.1875 C 261.1875 311.964844 261.460938 311.726562 261.714844 311.46875 C 261.972656 311.214844 262.210938 310.941406 262.433594 310.65625 C 262.652344 310.367188 262.855469 310.066406 263.035156 309.753906 C 263.21875 309.4375 263.378906 309.113281 263.515625 308.78125 C 263.65625 308.445312 263.769531 308.101562 263.863281 307.753906 C 263.957031 307.402344 264.03125 307.046875 264.078125 306.6875 C 264.125 306.328125 264.148438 305.96875 264.148438 305.605469 L 264.148438 247.472656 C 264.15625 246.742188 264.070312 246.023438 263.886719 245.316406 C 263.703125 244.613281 263.425781 243.941406 263.0625 243.308594 C 262.699219 242.675781 262.253906 242.105469 261.734375 241.59375 C 261.214844 241.078125 260.636719 240.644531 260 240.289062 L 209.722656 211.285156 C 209.40625 211.101562 209.082031 210.941406 208.746094 210.804688 C 208.414062 210.664062 208.070312 210.550781 207.71875 210.457031 C 207.367188 210.363281 207.011719 210.292969 206.652344 210.246094 C 206.292969 210.199219 205.933594 210.175781 205.570312 210.175781 C 205.207031 210.175781 204.847656 210.199219 204.488281 210.246094 C 204.128906 210.292969 203.773438 210.363281 203.421875 210.457031 C 203.070312 210.550781 202.730469 210.667969 202.394531 210.804688 C 202.058594 210.945312 201.734375 211.105469 201.421875 211.285156 C 201.105469 211.46875 200.804688 211.667969 200.515625 211.890625 C 200.230469 212.109375 199.957031 212.347656 199.703125 212.605469 C 199.445312 212.859375 199.207031 213.132812 198.984375 213.421875 C 198.765625 213.707031 198.5625 214.007812 198.382812 214.320312 C 198.199219 214.636719 198.042969 214.960938 197.902344 215.296875 C 197.761719 215.628906 197.648438 215.972656 197.554688 216.324219 C 197.460938 216.671875 197.390625 217.027344 197.339844 217.386719 C 197.292969 217.746094 197.269531 218.105469 197.269531 218.46875 L 197.269531 276.570312 C 197.261719 277.300781 197.347656 278.015625 197.53125 278.722656 C 197.714844 279.429688 197.988281 280.097656 198.355469 280.730469 C 198.71875 281.363281 199.164062 281.933594 199.683594 282.445312 C 200.203125 282.957031 200.78125 283.394531 201.417969 283.75 L 251.695312 312.753906 Z M 91.851562 305.605469 L 91.851562 247.472656 C 91.863281 246.742188 91.773438 246.023438 91.589844 245.316406 C 91.40625 244.613281 91.132812 243.941406 90.765625 243.308594 C 90.402344 242.675781 89.960938 242.105469 89.4375 241.59375 C 88.917969 241.078125 88.339844 240.644531 87.703125 240.289062 L 37.34375 211.238281 C 37.027344 211.058594 36.703125 210.898438 36.367188 210.761719 C 36.035156 210.621094 35.691406 210.507812 35.339844 210.414062 C 34.992188 210.320312 34.636719 210.25 34.277344 210.203125 C 33.917969 210.15625 33.554688 210.132812 33.191406 210.132812 C 32.832031 210.132812 32.46875 210.15625 32.109375 210.203125 C 31.75 210.25 31.394531 210.320312 31.042969 210.414062 C 30.695312 210.507812 30.351562 210.625 30.015625 210.761719 C 29.683594 210.902344 29.355469 211.0625 29.042969 211.242188 C 28.730469 211.421875 28.429688 211.625 28.140625 211.84375 C 27.851562 212.0625 27.582031 212.300781 27.324219 212.558594 C 27.066406 212.816406 26.828125 213.085938 26.605469 213.375 C 26.386719 213.660156 26.183594 213.960938 26.003906 214.273438 C 25.820312 214.589844 25.660156 214.914062 25.523438 215.246094 C 25.382812 215.582031 25.265625 215.921875 25.171875 216.273438 C 25.078125 216.625 25.007812 216.976562 24.957031 217.335938 C 24.910156 217.695312 24.886719 218.058594 24.886719 218.417969 L 24.886719 276.519531 C 24.875 277.25 24.964844 277.96875 25.148438 278.675781 C 25.332031 279.382812 25.609375 280.050781 25.972656 280.683594 C 26.339844 281.316406 26.78125 281.890625 27.300781 282.402344 C 27.824219 282.914062 28.402344 283.347656 29.039062 283.703125 L 79.394531 312.753906 C 79.710938 312.933594 80.035156 313.09375 80.371094 313.230469 C 80.703125 313.371094 81.046875 313.484375 81.398438 313.578125 C 81.75 313.671875 82.101562 313.742188 82.460938 313.792969 C 82.824219 313.839844 83.183594 313.863281 83.546875 313.863281 C 83.910156 313.863281 84.269531 313.835938 84.628906 313.789062 C 84.988281 313.742188 85.34375 313.671875 85.695312 313.578125 C 86.046875 313.484375 86.386719 313.367188 86.722656 313.230469 C 87.058594 313.089844 87.382812 312.929688 87.699219 312.75 C 88.011719 312.570312 88.3125 312.367188 88.601562 312.148438 C 88.886719 311.925781 89.160156 311.6875 89.417969 311.433594 C 89.671875 311.175781 89.914062 310.902344 90.132812 310.617188 C 90.355469 310.328125 90.554688 310.027344 90.738281 309.714844 C 90.917969 309.402344 91.078125 309.078125 91.21875 308.742188 C 91.355469 308.40625 91.472656 308.066406 91.566406 307.714844 C 91.660156 307.363281 91.730469 307.007812 91.78125 306.648438 C 91.828125 306.289062 91.851562 305.929688 91.851562 305.566406 Z M 111.039062 247.511719 L 111.039062 305.511719 C 111.039062 305.875 111.0625 306.234375 111.109375 306.59375 C 111.15625 306.953125 111.226562 307.308594 111.320312 307.65625 C 111.414062 308.007812 111.53125 308.351562 111.671875 308.683594 C 111.808594 309.019531 111.96875 309.34375 112.152344 309.65625 C 112.332031 309.972656 112.535156 310.273438 112.753906 310.558594 C 112.976562 310.847656 113.214844 311.117188 113.472656 311.375 C 113.726562 311.628906 114 311.867188 114.289062 312.089844 C 114.574219 312.308594 114.875 312.511719 115.191406 312.691406 C 115.503906 312.871094 115.828125 313.03125 116.164062 313.171875 C 116.5 313.308594 116.839844 313.425781 117.191406 313.519531 C 117.542969 313.613281 117.898438 313.683594 118.257812 313.730469 C 118.617188 313.777344 118.976562 313.800781 119.339844 313.800781 C 119.703125 313.800781 120.0625 313.777344 120.421875 313.730469 C 120.78125 313.683594 121.136719 313.613281 121.488281 313.519531 C 121.835938 313.425781 122.179688 313.308594 122.515625 313.171875 C 122.851562 313.03125 123.175781 312.871094 123.488281 312.691406 L 173.847656 283.644531 C 174.484375 283.289062 175.066406 282.851562 175.585938 282.339844 C 176.105469 281.828125 176.546875 281.253906 176.910156 280.621094 C 177.277344 279.988281 177.550781 279.320312 177.734375 278.613281 C 177.921875 277.90625 178.007812 277.1875 177.996094 276.460938 L 177.996094 218.46875 C 177.996094 218.105469 177.972656 217.746094 177.925781 217.386719 C 177.878906 217.027344 177.808594 216.671875 177.714844 216.324219 C 177.621094 215.972656 177.503906 215.628906 177.363281 215.296875 C 177.226562 214.960938 177.066406 214.636719 176.886719 214.320312 C 176.703125 214.007812 176.503906 213.707031 176.28125 213.417969 C 176.0625 213.132812 175.820312 212.859375 175.566406 212.605469 C 175.308594 212.347656 175.039062 212.109375 174.75 211.886719 C 174.460938 211.667969 174.160156 211.46875 173.847656 211.285156 C 173.53125 211.105469 173.207031 210.945312 172.875 210.804688 C 172.539062 210.667969 172.195312 210.550781 171.84375 210.457031 C 171.496094 210.363281 171.140625 210.292969 170.78125 210.246094 C 170.421875 210.199219 170.058594 210.175781 169.695312 210.175781 C 169.332031 210.171875 168.972656 210.199219 168.613281 210.246094 C 168.253906 210.292969 167.898438 210.363281 167.546875 210.457031 C 167.199219 210.550781 166.855469 210.664062 166.519531 210.804688 C 166.183594 210.941406 165.859375 211.101562 165.546875 211.285156 L 115.1875 240.335938 C 114.546875 240.695312 113.96875 241.128906 113.449219 241.640625 C 112.929688 242.15625 112.488281 242.726562 112.121094 243.359375 C 111.757812 243.992188 111.484375 244.660156 111.296875 245.367188 C 111.113281 246.074219 111.027344 246.792969 111.039062 247.523438 Z M 37.425781 163.667969 L 87.78125 134.617188 C 88.417969 134.261719 88.996094 133.828125 89.519531 133.316406 C 90.039062 132.804688 90.480469 132.230469 90.847656 131.597656 C 91.214844 130.964844 91.488281 130.296875 91.671875 129.589844 C 91.855469 128.882812 91.945312 128.164062 91.933594 127.433594 L 91.933594 69.339844 C 91.933594 68.976562 91.910156 68.617188 91.863281 68.257812 C 91.816406 67.898438 91.742188 67.542969 91.648438 67.191406 C 91.554688 66.84375 91.4375 66.5 91.300781 66.164062 C 91.160156 65.828125 91 65.503906 90.820312 65.191406 C 90.636719 64.878906 90.4375 64.578125 90.214844 64.289062 C 89.996094 64.003906 89.757812 63.730469 89.5 63.472656 C 89.242188 63.21875 88.96875 62.980469 88.683594 62.757812 C 88.394531 62.539062 88.09375 62.339844 87.78125 62.15625 C 87.464844 61.976562 87.140625 61.816406 86.804688 61.675781 C 86.472656 61.539062 86.128906 61.421875 85.777344 61.328125 C 85.425781 61.234375 85.074219 61.164062 84.710938 61.117188 C 84.351562 61.066406 83.992188 61.042969 83.628906 61.042969 C 83.265625 61.042969 82.90625 61.066406 82.546875 61.113281 C 82.1875 61.164062 81.832031 61.234375 81.480469 61.328125 C 81.128906 61.421875 80.789062 61.535156 80.453125 61.675781 C 80.117188 61.8125 79.792969 61.972656 79.476562 62.152344 L 29.117188 91.203125 C 28.480469 91.558594 27.902344 91.992188 27.378906 92.503906 C 26.859375 93.019531 26.417969 93.589844 26.050781 94.222656 C 25.6875 94.855469 25.414062 95.523438 25.230469 96.230469 C 25.046875 96.9375 24.957031 97.65625 24.96875 98.386719 L 24.96875 156.488281 C 24.96875 156.847656 24.992188 157.210938 25.042969 157.570312 C 25.089844 157.929688 25.160156 158.28125 25.253906 158.632812 C 25.347656 158.984375 25.464844 159.324219 25.605469 159.660156 C 25.742188 159.992188 25.90625 160.316406 26.085938 160.632812 C 26.269531 160.945312 26.46875 161.246094 26.691406 161.53125 C 26.910156 161.820312 27.148438 162.089844 27.40625 162.347656 C 27.664062 162.605469 27.933594 162.84375 28.222656 163.0625 C 28.511719 163.28125 28.8125 163.484375 29.125 163.664062 C 29.441406 163.84375 29.765625 164.003906 30.097656 164.144531 C 30.433594 164.28125 30.777344 164.398438 31.128906 164.492188 C 31.476562 164.585938 31.832031 164.65625 32.191406 164.703125 C 32.550781 164.75 32.914062 164.773438 33.273438 164.773438 C 33.636719 164.773438 34 164.75 34.359375 164.703125 C 34.71875 164.65625 35.074219 164.585938 35.421875 164.492188 C 35.773438 164.398438 36.117188 164.285156 36.453125 164.144531 C 36.785156 164.007812 37.113281 163.847656 37.425781 163.667969 Z M 97.332031 151.242188 C 97.960938 150.871094 98.625 150.585938 99.332031 150.394531 C 100.035156 150.203125 100.753906 150.105469 101.484375 150.105469 C 102.214844 150.105469 102.929688 150.203125 103.636719 150.394531 C 104.339844 150.585938 105.007812 150.871094 105.632812 151.242188 L 155.996094 180.296875 C 156.308594 180.476562 156.609375 180.679688 156.898438 180.898438 C 157.183594 181.121094 157.457031 181.359375 157.710938 181.613281 C 157.96875 181.871094 158.207031 182.140625 158.429688 182.429688 C 158.648438 182.71875 158.851562 183.019531 159.03125 183.332031 C 159.210938 183.644531 159.371094 183.96875 159.511719 184.304688 C 159.648438 184.640625 159.765625 184.980469 159.859375 185.332031 C 159.953125 185.679688 160.023438 186.035156 160.070312 186.394531 C 160.117188 186.753906 160.144531 187.117188 160.144531 187.476562 C 160.144531 187.839844 160.117188 188.199219 160.070312 188.558594 C 160.023438 188.917969 159.953125 189.273438 159.859375 189.625 C 159.765625 189.972656 159.648438 190.316406 159.511719 190.652344 C 159.371094 190.984375 159.210938 191.308594 159.03125 191.625 C 158.851562 191.9375 158.648438 192.238281 158.429688 192.527344 C 158.207031 192.8125 157.96875 193.085938 157.710938 193.339844 C 157.457031 193.597656 157.183594 193.835938 156.898438 194.058594 C 156.609375 194.277344 156.308594 194.480469 155.996094 194.660156 L 105.71875 223.664062 C 105.089844 224.039062 104.421875 224.320312 103.71875 224.515625 C 103.015625 224.707031 102.296875 224.804688 101.566406 224.804688 C 100.835938 224.804688 100.117188 224.707031 99.414062 224.515625 C 98.707031 224.320312 98.042969 224.039062 97.414062 223.664062 L 47.054688 194.609375 C 46.742188 194.429688 46.441406 194.226562 46.152344 194.007812 C 45.863281 193.785156 45.59375 193.546875 45.335938 193.292969 C 45.078125 193.035156 44.839844 192.765625 44.621094 192.476562 C 44.398438 192.1875 44.199219 191.886719 44.015625 191.574219 C 43.835938 191.261719 43.675781 190.9375 43.539062 190.601562 C 43.398438 190.265625 43.28125 189.925781 43.1875 189.574219 C 43.09375 189.222656 43.023438 188.871094 42.976562 188.511719 C 42.929688 188.152344 42.90625 187.789062 42.90625 187.429688 C 42.90625 187.066406 42.929688 186.707031 42.976562 186.347656 C 43.023438 185.988281 43.09375 185.632812 43.1875 185.28125 C 43.28125 184.933594 43.398438 184.589844 43.539062 184.253906 C 43.675781 183.921875 43.835938 183.597656 44.015625 183.28125 C 44.199219 182.96875 44.398438 182.667969 44.621094 182.378906 C 44.839844 182.09375 45.078125 181.820312 45.335938 181.566406 C 45.59375 181.308594 45.863281 181.070312 46.152344 180.847656 C 46.441406 180.628906 46.742188 180.425781 47.054688 180.246094 Z M 133.203125 45.625 C 132.890625 45.441406 132.589844 45.242188 132.300781 45.019531 C 132.015625 44.800781 131.742188 44.558594 131.488281 44.304688 C 131.230469 44.046875 130.992188 43.773438 130.769531 43.488281 C 130.550781 43.199219 130.351562 42.898438 130.167969 42.585938 C 129.988281 42.273438 129.828125 41.945312 129.6875 41.613281 C 129.550781 41.277344 129.433594 40.933594 129.339844 40.585938 C 129.246094 40.234375 129.175781 39.878906 129.128906 39.519531 C 129.082031 39.160156 129.058594 38.800781 129.058594 38.4375 C 129.058594 38.074219 129.082031 37.714844 129.128906 37.355469 C 129.175781 36.996094 129.246094 36.640625 129.339844 36.292969 C 129.433594 35.941406 129.550781 35.597656 129.6875 35.265625 C 129.828125 34.929688 129.988281 34.605469 130.167969 34.292969 C 130.351562 33.976562 130.550781 33.675781 130.769531 33.386719 C 130.992188 33.101562 131.230469 32.828125 131.488281 32.574219 C 131.742188 32.316406 132.015625 32.078125 132.300781 31.855469 C 132.589844 31.636719 132.890625 31.433594 133.203125 31.253906 L 183.566406 2.207031 C 184.191406 1.832031 184.859375 1.546875 185.5625 1.351562 C 186.269531 1.160156 186.984375 1.0625 187.714844 1.0625 C 188.445312 1.0625 189.164062 1.160156 189.871094 1.351562 C 190.574219 1.546875 191.238281 1.832031 191.867188 2.207031 L 217.042969 16.730469 L 242.226562 31.253906 C 242.542969 31.433594 242.84375 31.636719 243.128906 31.855469 C 243.417969 32.078125 243.6875 32.316406 243.945312 32.574219 C 244.203125 32.828125 244.441406 33.101562 244.660156 33.386719 C 244.882812 33.675781 245.082031 33.976562 245.265625 34.292969 C 245.445312 34.605469 245.605469 34.929688 245.742188 35.265625 C 245.882812 35.597656 246 35.941406 246.09375 36.292969 C 246.1875 36.640625 246.257812 36.996094 246.304688 37.355469 C 246.351562 37.714844 246.375 38.074219 246.375 38.4375 C 246.375 38.800781 246.351562 39.160156 246.304688 39.519531 C 246.257812 39.878906 246.1875 40.234375 246.09375 40.585938 C 246 40.933594 245.882812 41.277344 245.742188 41.613281 C 245.605469 41.945312 245.445312 42.269531 245.265625 42.585938 C 245.082031 42.898438 244.882812 43.199219 244.660156 43.488281 C 244.441406 43.773438 244.203125 44.046875 243.945312 44.304688 C 243.6875 44.558594 243.417969 44.800781 243.128906 45.019531 C 242.84375 45.242188 242.542969 45.441406 242.226562 45.625 L 191.867188 74.671875 C 191.238281 75.046875 190.574219 75.332031 189.871094 75.527344 C 189.164062 75.71875 188.445312 75.816406 187.714844 75.816406 C 186.984375 75.816406 186.265625 75.71875 185.5625 75.527344 C 184.859375 75.332031 184.191406 75.046875 183.566406 74.671875 Z M 173.917969 91.25 L 123.640625 62.246094 C 123.328125 62.066406 123.003906 61.90625 122.667969 61.769531 C 122.332031 61.628906 121.992188 61.511719 121.640625 61.417969 C 121.289062 61.324219 120.933594 61.253906 120.574219 61.207031 C 120.214844 61.160156 119.855469 61.136719 119.492188 61.136719 C 119.128906 61.136719 118.765625 61.160156 118.40625 61.207031 C 118.046875 61.253906 117.691406 61.328125 117.34375 61.421875 C 116.992188 61.515625 116.648438 61.628906 116.316406 61.769531 C 115.980469 61.910156 115.65625 62.066406 115.339844 62.25 C 115.027344 62.429688 114.726562 62.632812 114.4375 62.851562 C 114.152344 63.074219 113.878906 63.3125 113.621094 63.566406 C 113.367188 63.824219 113.125 64.097656 112.90625 64.382812 C 112.683594 64.671875 112.484375 64.972656 112.304688 65.285156 C 112.121094 65.597656 111.960938 65.921875 111.824219 66.257812 C 111.683594 66.59375 111.566406 66.933594 111.472656 67.285156 C 111.378906 67.636719 111.308594 67.992188 111.261719 68.347656 C 111.214844 68.707031 111.191406 69.070312 111.191406 69.433594 L 111.191406 127.53125 C 111.179688 128.261719 111.269531 128.980469 111.453125 129.6875 C 111.636719 130.394531 111.910156 131.0625 112.277344 131.695312 C 112.640625 132.328125 113.085938 132.898438 113.605469 133.414062 C 114.125 133.925781 114.703125 134.359375 115.339844 134.71875 L 165.617188 163.714844 C 165.929688 163.898438 166.257812 164.054688 166.589844 164.195312 C 166.925781 164.332031 167.269531 164.449219 167.621094 164.542969 C 167.96875 164.636719 168.324219 164.707031 168.683594 164.753906 C 169.042969 164.800781 169.40625 164.824219 169.769531 164.824219 C 170.132812 164.824219 170.492188 164.800781 170.851562 164.753906 C 171.210938 164.707031 171.566406 164.636719 171.917969 164.542969 C 172.265625 164.449219 172.609375 164.332031 172.945312 164.191406 C 173.28125 164.054688 173.605469 163.894531 173.917969 163.714844 C 174.234375 163.53125 174.535156 163.332031 174.820312 163.109375 C 175.109375 162.890625 175.378906 162.652344 175.636719 162.394531 C 175.894531 162.140625 176.132812 161.867188 176.351562 161.578125 C 176.574219 161.292969 176.773438 160.992188 176.957031 160.675781 C 177.136719 160.363281 177.296875 160.039062 177.4375 159.703125 C 177.574219 159.371094 177.691406 159.027344 177.785156 158.675781 C 177.878906 158.328125 177.949219 157.972656 177.996094 157.613281 C 178.042969 157.253906 178.070312 156.894531 178.070312 156.53125 L 178.070312 98.4375 C 178.078125 97.707031 177.992188 96.988281 177.808594 96.285156 C 177.628906 95.578125 177.355469 94.910156 176.992188 94.277344 C 176.625 93.644531 176.1875 93.070312 175.667969 92.558594 C 175.148438 92.042969 174.574219 91.609375 173.9375 91.25 Z M 173.917969 91.25" clip-rule="evenodd"/></clipPath><radialGradient gradientTransform="matrix(1.00043 0 0 .99957 -1338.632 -1599.573)" xmlns:xlink="http://www.w3.org/1999/xlink" gradientUnits="userSpaceOnUse" xlink:type="simple" r="373.036" xlink:actuate="onLoad" cx="1525.609" id="c" cy="1974.364" xlink:show="other" fx="1525.609" fy="1974.364"><stop stop-color="#FFCA11" offset="0"/><stop stop-color="#FFC812" offset=".004"/><stop stop-color="#FFC713" offset=".008"/><stop stop-color="#FEC514" offset=".012"/><stop stop-color="#FEC314" offset=".016"/><stop stop-color="#FEC215" offset=".02"/><stop stop-color="#FEC016" offset=".023"/><stop stop-color="#FEBE17" offset=".027"/><stop stop-color="#FEBD17" offset=".031"/><stop stop-color="#FDBB18" offset=".035"/><stop stop-color="#FDB919" offset=".039"/><stop stop-color="#FDB81A" offset=".043"/><stop stop-color="#FDB61A" offset=".047"/><stop stop-color="#FDB41B" offset=".051"/><stop stop-color="#FDB21C" offset=".055"/><stop stop-color="#FCB11C" offset=".059"/><stop stop-color="#FCAF1D" offset=".063"/><stop stop-color="#FCAD1E" offset=".066"/><stop stop-color="#FCAC1F" offset=".07"/><stop stop-color="#FCAA1F" offset=".074"/><stop stop-color="#FCA820" offset=".078"/><stop stop-color="#FBA721" offset=".082"/><stop stop-color="#FBA522" offset=".086"/><stop stop-color="#FBA322" offset=".09"/><stop stop-color="#FBA223" offset=".094"/><stop stop-color="#FBA024" offset=".098"/><stop stop-color="#FB9E25" offset=".102"/><stop stop-color="#FA9D25" offset=".105"/><stop stop-color="#FA9B26" offset=".109"/><stop stop-color="#FA9927" offset=".113"/><stop stop-color="#FA9727" offset=".117"/><stop stop-color="#FA9628" offset=".121"/><stop stop-color="#FA9429" offset=".125"/><stop stop-color="#F9922A" offset=".129"/><stop stop-color="#F9912A" offset=".133"/><stop stop-color="#F98F2B" offset=".137"/><stop stop-color="#F98D2C" offset=".141"/><stop stop-color="#F98C2D" offset=".145"/><stop stop-color="#F98A2D" offset=".148"/><stop stop-color="#F9882E" offset=".152"/><stop stop-color="#F8872F" offset=".156"/><stop stop-color="#F88530" offset=".16"/><stop stop-color="#F88330" offset=".164"/><stop stop-color="#F88231" offset=".168"/><stop stop-color="#F88032" offset=".172"/><stop stop-color="#F87E32" offset=".176"/><stop stop-color="#F77C33" offset=".18"/><stop stop-color="#F77B34" offset=".184"/><stop stop-color="#F77935" offset=".188"/><stop stop-color="#F77735" offset=".191"/><stop stop-color="#F77636" offset=".195"/><stop stop-color="#F77437" offset=".199"/><stop stop-color="#F67238" offset=".203"/><stop stop-color="#F67138" offset=".207"/><stop stop-color="#F66F39" offset=".211"/><stop stop-color="#F66D3A" offset=".215"/><stop stop-color="#F66C3B" offset=".219"/><stop stop-color="#F66A3B" offset=".223"/><stop stop-color="#F5683C" offset=".227"/><stop stop-color="#F5673D" offset=".23"/><stop stop-color="#F5653E" offset=".234"/><stop stop-color="#F5633E" offset=".238"/><stop stop-color="#F5613F" offset=".242"/><stop stop-color="#F56040" offset=".246"/><stop stop-color="#F45E40" offset=".25"/><stop stop-color="#F45C41" offset=".254"/><stop stop-color="#F45B42" offset=".258"/><stop stop-color="#F45943" offset=".262"/><stop stop-color="#F45743" offset=".266"/><stop stop-color="#F45644" offset=".27"/><stop stop-color="#F35445" offset=".273"/><stop stop-color="#F35246" offset=".277"/><stop stop-color="#F35146" offset=".281"/><stop stop-color="#F34F47" offset=".285"/><stop stop-color="#F34D48" offset=".289"/><stop stop-color="#F34B49" offset=".293"/><stop stop-color="#F24A49" offset=".297"/><stop stop-color="#F2484A" offset=".301"/><stop stop-color="#F2464B" offset=".305"/><stop stop-color="#F2454B" offset=".309"/><stop stop-color="#F2434C" offset=".313"/><stop stop-color="#F2414D" offset=".316"/><stop stop-color="#F1404E" offset=".32"/><stop stop-color="#F13E4E" offset=".324"/><stop stop-color="#F13C4F" offset=".328"/><stop stop-color="#F13B50" offset=".332"/><stop stop-color="#F13951" offset=".336"/><stop stop-color="#F13751" offset=".34"/><stop stop-color="#F03652" offset=".344"/><stop stop-color="#F03453" offset=".348"/><stop stop-color="#F03254" offset=".352"/><stop stop-color="#F03054" offset=".355"/><stop stop-color="#F02F55" offset=".359"/><stop stop-color="#F02D56" offset=".363"/><stop stop-color="#EF2B56" offset=".367"/><stop stop-color="#EF2A57" offset=".371"/><stop stop-color="#EF2858" offset=".375"/><stop stop-color="#EF2659" offset=".379"/><stop stop-color="#EF2559" offset=".383"/><stop stop-color="#EF235A" offset=".387"/><stop stop-color="#EE215B" offset=".391"/><stop stop-color="#EE205C" offset=".395"/><stop stop-color="#EE1E5C" offset=".398"/><stop stop-color="#EE1C5D" offset=".402"/><stop stop-color="#EE1B5E" offset=".406"/><stop stop-color="#EE195F" offset=".41"/><stop stop-color="#ED175F" offset=".414"/><stop stop-color="#ED1560" offset=".418"/><stop stop-color="#ED1461" offset=".422"/><stop stop-color="#ED1261" offset=".426"/><stop stop-color="#EC1162" offset=".43"/><stop stop-color="#EB1162" offset=".434"/><stop stop-color="#EA1263" offset=".438"/><stop stop-color="#E91263" offset=".441"/><stop stop-color="#E81263" offset=".445"/><stop stop-color="#E71264" offset=".449"/><stop stop-color="#E51264" offset=".453"/><stop stop-color="#E41364" offset=".457"/><stop stop-color="#E31365" offset=".461"/><stop stop-color="#E21365" offset=".465"/><stop stop-color="#E11365" offset=".469"/><stop stop-color="#E01366" offset=".473"/><stop stop-color="#DE1466" offset=".477"/><stop stop-color="#DD1466" offset=".48"/><stop stop-color="#DC1467" offset=".484"/><stop stop-color="#DB1467" offset=".488"/><stop stop-color="#DA1567" offset=".492"/><stop stop-color="#D91568" offset=".496"/><stop stop-color="#D71568" offset=".5"/><stop stop-color="#D61568" offset=".504"/><stop stop-color="#D51569" offset=".508"/><stop stop-color="#D41669" offset=".512"/><stop stop-color="#D31669" offset=".516"/><stop stop-color="#D2166A" offset=".52"/><stop stop-color="#D0166A" offset=".523"/><stop stop-color="#CF166A" offset=".527"/><stop stop-color="#CE176B" offset=".531"/><stop stop-color="#CD176B" offset=".535"/><stop stop-color="#CC176B" offset=".539"/><stop stop-color="#CB176C" offset=".543"/><stop stop-color="#C9186C" offset=".547"/><stop stop-color="#C8186C" offset=".551"/><stop stop-color="#C7186D" offset=".555"/><stop stop-color="#C6186D" offset=".559"/><stop stop-color="#C5186D" offset=".563"/><stop stop-color="#C4196E" offset=".566"/><stop stop-color="#C3196E" offset=".57"/><stop stop-color="#C1196E" offset=".574"/><stop stop-color="#C0196F" offset=".578"/><stop stop-color="#BF196F" offset=".582"/><stop stop-color="#BE1A6F" offset=".586"/><stop stop-color="#BD1A70" offset=".59"/><stop stop-color="#BC1A70" offset=".594"/><stop stop-color="#BA1A70" offset=".598"/><stop stop-color="#B91A71" offset=".602"/><stop stop-color="#B81B71" offset=".605"/><stop stop-color="#B71B71" offset=".609"/><stop stop-color="#B61B72" offset=".613"/><stop stop-color="#B51B72" offset=".617"/><stop stop-color="#B31C72" offset=".621"/><stop stop-color="#B21C73" offset=".625"/><stop stop-color="#B11C73" offset=".629"/><stop stop-color="#B01C73" offset=".633"/><stop stop-color="#AF1C74" offset=".637"/><stop stop-color="#AE1D74" offset=".641"/><stop stop-color="#AC1D74" offset=".645"/><stop stop-color="#AB1D75" offset=".648"/><stop stop-color="#AA1D75" offset=".652"/><stop stop-color="#A91D75" offset=".656"/><stop stop-color="#A81E76" offset=".66"/><stop stop-color="#A71E76" offset=".664"/><stop stop-color="#A51E76" offset=".668"/><stop stop-color="#A41E77" offset=".672"/><stop stop-color="#A31E77" offset=".676"/><stop stop-color="#A21F77" offset=".68"/><stop stop-color="#A11F78" offset=".684"/><stop stop-color="#A01F78" offset=".688"/><stop stop-color="#9E1F78" offset=".691"/><stop stop-color="#9D2079" offset=".695"/><stop stop-color="#9C2079" offset=".699"/><stop stop-color="#9B2079" offset=".703"/><stop stop-color="#9A207A" offset=".707"/><stop stop-color="#99207A" offset=".711"/><stop stop-color="#97217A" offset=".715"/><stop stop-color="#96217A" offset=".719"/><stop stop-color="#95217B" offset=".723"/><stop stop-color="#94217B" offset=".727"/><stop stop-color="#93217B" offset=".73"/><stop stop-color="#92227C" offset=".734"/><stop stop-color="#90227C" offset=".738"/><stop stop-color="#8F227C" offset=".742"/><stop stop-color="#8E227D" offset=".746"/><stop stop-color="#8D237D" offset=".75"/><stop stop-color="#8C237D" offset=".754"/><stop stop-color="#8B237E" offset=".758"/><stop stop-color="#89237E" offset=".762"/><stop stop-color="#88237E" offset=".766"/><stop stop-color="#87247F" offset=".77"/><stop stop-color="#86247F" offset=".773"/><stop stop-color="#85247F" offset=".777"/><stop stop-color="#842480" offset=".781"/><stop stop-color="#822480" offset=".785"/><stop stop-color="#812580" offset=".789"/><stop stop-color="#802581" offset=".793"/><stop stop-color="#7F2581" offset=".797"/><stop stop-color="#7E2581" offset=".801"/><stop stop-color="#7D2582" offset=".805"/><stop stop-color="#7C2682" offset=".809"/><stop stop-color="#7A2682" offset=".813"/><stop stop-color="#792683" offset=".816"/><stop stop-color="#782683" offset=".82"/><stop stop-color="#772783" offset=".824"/><stop stop-color="#762784" offset=".828"/><stop stop-color="#752784" offset=".832"/><stop stop-color="#732784" offset=".836"/><stop stop-color="#722785" offset=".84"/><stop stop-color="#712885" offset=".844"/><stop stop-color="#702885" offset=".848"/><stop stop-color="#6F2886" offset=".852"/><stop stop-color="#6E2886" offset=".855"/><stop stop-color="#6C2886" offset=".859"/><stop stop-color="#6B2987" offset=".863"/><stop stop-color="#6A2987" offset=".867"/><stop stop-color="#692987" offset=".871"/><stop stop-color="#682988" offset=".875"/><stop stop-color="#672988" offset=".879"/><stop stop-color="#652A88" offset=".883"/><stop stop-color="#642A89" offset=".887"/><stop stop-color="#632A89" offset=".891"/><stop stop-color="#622A89" offset=".895"/><stop stop-color="#612B8A" offset=".898"/><stop stop-color="#602B8A" offset=".902"/><stop stop-color="#5E2B8A" offset=".906"/><stop stop-color="#5D2B8B" offset=".91"/><stop stop-color="#5C2B8B" offset=".914"/><stop stop-color="#5B2C8B" offset=".918"/><stop stop-color="#5A2C8C" offset=".922"/><stop stop-color="#592C8C" offset=".926"/><stop stop-color="#572C8C" offset=".93"/><stop stop-color="#562C8D" offset=".934"/><stop stop-color="#552D8D" offset=".938"/><stop stop-color="#542D8D" offset=".941"/><stop stop-color="#532D8E" offset=".945"/><stop stop-color="#522D8E" offset=".949"/><stop stop-color="#502E8E" offset=".953"/><stop stop-color="#4F2E8F" offset=".957"/><stop stop-color="#4E2E8F" offset=".961"/><stop stop-color="#4D2E8F" offset=".965"/><stop stop-color="#4C2E90" offset=".969"/><stop stop-color="#4B2F90" offset=".973"/><stop stop-color="#492F90" offset=".977"/><stop stop-color="#482F91" offset=".98"/><stop stop-color="#472F91" offset=".984"/><stop stop-color="#462F91" offset=".988"/><stop stop-color="#453092" offset=".992"/><stop stop-color="#443092" offset=".996"/><stop stop-color="#433092" offset="1"/></radialGradient></defs><g clip-path="url(#a)"><g clip-path="url(#b)"><path fill="url(#c)" d="M 24.886719 1.0625 L 24.886719 373.976562 L 350.386719 373.976562 L 350.386719 1.0625 Z M 24.886719 1.0625"/></g></g></svg>